<svg width="5760" height="1080" viewBox="0 0 5760 1080" fill="none" xmlns="http://www.w3.org/2000/svg">
<path fill-rule="evenodd" clip-rule="evenodd" d="M2803.09 36.3818H2800V47.4102H2803.09V41.1238C2803.09 40.365 2803.09 39.4709 2803.81 38.9831C2804.06 38.8122 2804.35 38.7182 2804.66 38.7121C2804.89 38.7057 2805.12 38.7537 2805.33 38.8523C2805.55 38.9509 2805.73 39.0976 2805.88 39.2812C2806.12 39.7639 2806.23 40.3056 2806.19 40.846V47.3831H2809.32V41.4218C2809.32 40.216 2809.32 39.5792 2809.91 39.0915C2810.19 38.8576 2810.54 38.7243 2810.9 38.7121C2811.21 38.702 2811.51 38.7965 2811.75 38.9807C2812 39.1649 2812.18 39.4281 2812.26 39.7283C2812.37 40.3496 2812.41 40.9812 2812.38 41.6115V47.4102H2815.48V40.216C2815.55 39.3583 2815.45 38.4941 2815.19 37.6757C2814.9 37.1515 2814.46 36.7239 2813.93 36.4431C2813.41 36.1624 2812.82 36.04 2812.22 36.0905C2811.64 36.0775 2811.06 36.1827 2810.52 36.4002C2809.98 36.6177 2809.48 36.9431 2809.06 37.3573C2808.71 36.9187 2808.25 36.5744 2807.74 36.3538C2807.22 36.1332 2806.66 36.0428 2806.11 36.0905C2805.53 36.0659 2804.95 36.1835 2804.43 36.4335C2803.9 36.6834 2803.45 37.0584 2803.09 37.5267V36.3818Z" fill="black"/>
<path fill-rule="evenodd" clip-rule="evenodd" d="M2824.77 43.2371C2824.81 43.541 2824.76 43.8508 2824.64 44.1295C2824.51 44.4082 2824.31 44.644 2824.05 44.8087C2823.73 45 2823.35 45.0961 2822.98 45.0865C2822.74 45.098 2822.51 45.0545 2822.29 44.9594C2822.08 44.8642 2821.88 44.72 2821.73 44.5378C2821.52 44.1356 2821.43 43.677 2821.49 43.2236V36.3613H2818.33V43.3049C2818.33 45.1068 2818.43 45.7639 2819 46.5633C2819.32 46.9637 2819.74 47.2784 2820.21 47.4812C2820.68 47.6839 2821.2 47.7687 2821.71 47.7284C2822.4 47.725 2823.09 47.5507 2823.7 47.2204C2824.12 47.0211 2824.48 46.7238 2824.76 46.3533V47.41H2827.9V36.3613H2824.77V43.2371Z" fill="black"/>
<path fill-rule="evenodd" clip-rule="evenodd" d="M2829.43 45.5473C2830.1 46.2478 2830.91 46.7991 2831.8 47.1664C2832.69 47.5337 2833.64 47.709 2834.6 47.6811C2837.11 47.6811 2839.63 46.4144 2839.63 43.8063C2839.63 41.1982 2837.13 40.5953 2834.99 40.1889C2833.98 39.9992 2833.27 39.8773 2833.27 39.2405C2833.27 38.9221 2833.56 38.4141 2834.78 38.4141C2835.77 38.4683 2836.7 38.8571 2837.44 39.5182L2839.38 37.6553C2838.03 36.5879 2836.38 36.0065 2834.67 36.0024C2831.69 36.0024 2830.18 37.8857 2830.18 39.7079C2830.18 40.4765 2830.46 41.2182 2830.98 41.7808C2831.48 42.2472 2832.09 42.5759 2832.75 42.736C2833.21 42.8792 2833.69 42.9924 2834.17 43.0747C2834.79 43.1295 2835.4 43.2731 2835.99 43.5015C2836.11 43.5542 2836.21 43.643 2836.28 43.7565C2836.36 43.87 2836.39 44.003 2836.39 44.1382C2836.39 44.9647 2835.25 45.2153 2834.5 45.2153C2833.31 45.1436 2832.19 44.5956 2831.4 43.6911L2829.43 45.5473Z" fill="black"/>
<path d="M2846.5 45.2898C2844.81 45.2898 2844.06 43.9349 2844.08 42.5395H2851.68C2851.64 41.293 2851.56 39.1524 2850.17 37.5875C2849.67 37.0664 2849.08 36.6562 2848.42 36.3833C2847.76 36.1103 2847.05 35.9805 2846.34 36.0024C2842.15 36.0024 2840.88 39.4301 2840.88 42.0991C2840.88 45.7165 2843.1 47.8098 2846.26 47.8098C2847.74 47.8277 2849.17 47.2676 2850.25 46.2449C2850.75 45.75 2851.18 45.1948 2851.54 44.592L2849.17 43.3456C2848.8 44.1314 2848.21 45.2898 2846.5 45.2898V45.2898ZM2844.73 39.0507C2844.93 38.8245 2845.18 38.6437 2845.45 38.52C2845.72 38.3963 2846.02 38.3325 2846.32 38.3327C2846.89 38.327 2847.44 38.5482 2847.85 38.9491C2848.21 39.3939 2848.41 39.9417 2848.44 40.514H2844.1C2844.17 39.9759 2844.39 39.4691 2844.73 39.0507V39.0507Z" fill="black"/>
<path fill-rule="evenodd" clip-rule="evenodd" d="M2859.98 43.2371C2860.02 43.541 2859.98 43.8508 2859.85 44.1295C2859.73 44.4082 2859.52 44.644 2859.27 44.8087C2858.94 44.9997 2858.57 45.0958 2858.19 45.0865C2857.96 45.098 2857.72 45.0545 2857.51 44.9594C2857.29 44.8642 2857.1 44.72 2856.95 44.5378C2856.73 44.1359 2856.65 43.677 2856.7 43.2236V36.3613H2853.55V43.3049C2853.55 45.1068 2853.65 45.7639 2854.21 46.5633C2854.54 46.9637 2854.96 47.2784 2855.43 47.4812C2855.9 47.6839 2856.41 47.7687 2856.92 47.7284C2857.62 47.7247 2858.3 47.5505 2858.92 47.2204C2859.33 47.0213 2859.69 46.724 2859.97 46.3533V47.41H2863.11V36.3613H2859.98V43.2371Z" fill="black"/>
<path fill-rule="evenodd" clip-rule="evenodd" d="M2869.15 36.3818H2866.06V47.4102H2869.15V41.1238C2869.15 40.365 2869.15 39.4709 2869.86 38.9831C2870.12 38.8107 2870.41 38.7166 2870.72 38.7121C2870.95 38.7057 2871.18 38.7537 2871.4 38.8523C2871.61 38.9509 2871.8 39.0976 2871.94 39.2812C2872.19 39.7636 2872.29 40.3056 2872.25 40.846V47.3831H2875.34V41.4218C2875.34 40.216 2875.34 39.5792 2875.94 39.0915C2876.23 38.866 2876.59 38.7468 2876.96 38.7528C2877.26 38.7414 2877.56 38.833 2877.8 39.0133C2878.05 39.1935 2878.23 39.4522 2878.32 39.7486C2878.43 40.37 2878.47 41.0015 2878.44 41.6318V47.4305H2881.53V40.216C2881.61 39.3583 2881.51 38.4941 2881.25 37.6757C2880.95 37.1504 2880.51 36.7221 2879.99 36.4412C2879.46 36.1604 2878.87 36.0387 2878.27 36.0905C2877.69 36.0787 2877.11 36.1846 2876.57 36.4021C2876.03 36.6195 2875.54 36.9442 2875.12 37.3573C2874.76 36.9187 2874.31 36.5744 2873.79 36.3538C2873.28 36.1332 2872.72 36.0428 2872.16 36.0905C2871.59 36.0659 2871.01 36.1835 2870.48 36.4335C2869.96 36.6834 2869.5 37.0584 2869.15 37.5267V36.3818Z" fill="black"/>
<path fill-rule="evenodd" clip-rule="evenodd" d="M2887.56 45.9923H2884.51V57.0546H2887.64V50.8359C2887.64 49.4404 2888.09 49.2033 2889.6 48.9323L2890.64 48.763V45.8839C2889.5 45.9295 2888.41 46.3802 2887.56 47.1575V45.9923ZM2892.37 44.6375H2895.46V42.0972H2892.37L2892.37 44.6375ZM2892.37 57.0817H2895.46V45.9923H2892.37L2892.37 57.0817ZM2905.99 53.0172C2905.61 53.7962 2905.02 54.9614 2903.33 54.9614C2901.65 54.9614 2900.89 53.6065 2900.91 52.211H2908.46C2908.42 50.9646 2908.34 48.8239 2906.96 47.2591C2906.47 46.7352 2905.87 46.3217 2905.22 46.0452C2904.56 45.7687 2903.85 45.6353 2903.14 45.6536C2898.95 45.6536 2897.68 49.0814 2897.68 51.7504C2897.68 55.3678 2899.91 57.461 2903.06 57.461C2904.54 57.4782 2905.97 56.9182 2907.05 55.8962C2907.55 55.4008 2907.98 54.8457 2908.34 54.2433L2905.99 53.0172ZM2900.9 50.1585C2900.98 49.6204 2901.2 49.1138 2901.54 48.6952C2901.74 48.4673 2901.99 48.2855 2902.26 48.1617C2902.54 48.038 2902.84 47.9751 2903.14 47.9772C2903.71 47.9722 2904.26 48.1933 2904.67 48.5936C2905.03 49.0367 2905.24 49.5855 2905.26 50.1585H2900.9ZM2910.83 46.243H2909.27V48.2346H2910.83V53.5659C2910.73 54.4257 2910.88 55.2962 2911.27 56.0655C2911.94 57.0817 2913.13 57.1426 2914.21 57.1426C2914.76 57.1426 2915.31 57.095 2915.86 57.0004V54.433L2914.74 54.4736C2913.9 54.4736 2913.9 53.9046 2913.92 53.2272V48.2549H2916V46.2633H2913.94V42.8152H2910.83V46.243ZM2917.78 42.0972V57.0546H2920.79L2920.67 55.8894C2921.05 56.3623 2921.52 56.7403 2922.06 56.9932C2922.6 57.246 2923.19 57.3668 2923.79 57.3459C2924.63 57.3542 2925.47 57.1079 2926.18 56.638C2926.89 56.168 2927.44 55.4953 2927.78 54.7039C2928.24 53.636 2928.46 52.4812 2928.45 51.3168C2928.45 46.9136 2925.64 45.6875 2923.92 45.6875C2923.34 45.6587 2922.77 45.766 2922.24 46.001C2921.71 46.236 2921.24 46.5923 2920.87 47.0423V42.0972H2917.78ZM2923.1 48.0652C2924.87 47.9568 2925.4 49.6504 2925.4 51.4049C2925.43 52.3528 2925.2 53.2895 2924.74 54.1146C2924.55 54.3761 2924.3 54.5892 2924.02 54.7374C2923.74 54.8855 2923.42 54.9645 2923.1 54.9681C2922.73 54.9706 2922.37 54.8767 2922.04 54.6953C2921.72 54.5139 2921.44 54.2511 2921.25 53.9317C2920.89 53.1584 2920.72 52.3112 2920.75 51.4591C2920.79 50.7749 2920.81 48.1939 2923.1 48.0652ZM2938.25 52.9968C2937.87 53.7759 2937.28 54.941 2935.59 54.941C2933.91 54.941 2933.15 53.5862 2933.17 52.1907H2940.72C2940.68 50.9443 2940.6 48.8036 2939.22 47.2388C2938.72 46.7177 2938.13 46.3075 2937.47 46.0345C2936.81 45.7615 2936.1 45.6318 2935.39 45.6536C2931.19 45.6536 2929.94 49.0814 2929.94 51.7504C2929.94 55.3678 2932.16 57.461 2935.31 57.461C2936.79 57.4789 2938.22 56.9188 2939.31 55.8962C2939.8 55.4011 2940.23 54.8459 2940.59 54.2433L2938.25 52.9968ZM2933.15 50.1585C2933.21 49.6237 2933.42 49.1172 2933.75 48.6952C2933.95 48.469 2934.2 48.2882 2934.47 48.1645C2934.74 48.0408 2935.04 47.977 2935.34 47.9772C2935.91 47.9732 2936.45 48.1943 2936.86 48.5936C2937.22 49.0364 2937.43 49.5854 2937.46 50.1585H2933.15ZM2945.73 45.9923H2942.64V57.0546H2945.77V50.8359C2945.77 49.4404 2946.22 49.2033 2947.73 48.9323L2948.77 48.763V45.8839C2947.64 45.9373 2946.56 46.3874 2945.73 47.1575V45.9923ZM2956.95 56.7836C2956.95 57.6913 2956.95 58.8565 2955.06 58.8565C2954.71 58.8701 2954.37 58.798 2954.06 58.6465C2953.77 58.5062 2953.52 58.2801 2953.36 57.9975C2953.2 57.7149 2953.12 57.3888 2953.14 57.0613H2949.87C2949.82 57.5255 2949.87 57.9936 2950.01 58.4372C2950.16 58.8808 2950.38 59.2908 2950.68 59.6423C2951.26 60.2588 2952.64 60.9972 2954.76 60.9972C2956.01 61.0324 2957.25 60.7483 2958.37 60.1707C2959.92 59.2426 2959.96 57.8201 2960 56.6143V45.9923H2957.07V47.0288C2956.7 46.6283 2956.26 46.313 2955.77 46.1047C2955.28 45.8964 2954.74 45.8003 2954.21 45.823C2950.69 45.823 2949.69 49.0204 2949.69 51.2423C2949.69 53.1459 2950.24 54.8597 2951.69 55.8149C2952.41 56.2982 2953.25 56.5486 2954.11 56.533C2955.12 56.5559 2956.11 56.2261 2956.92 55.5981L2956.95 56.7836ZM2954.8 48.2549C2955.13 48.2217 2955.46 48.2789 2955.76 48.4206C2956.06 48.5624 2956.32 48.7835 2956.51 49.061C2956.8 49.738 2956.93 50.4762 2956.89 51.2152C2956.89 52.7801 2956.53 54.0739 2954.94 54.0739C2953 54.0739 2952.94 52.1501 2952.94 51.2152C2952.95 49.6504 2953.31 48.3159 2954.8 48.2549Z" fill="black"/>
<path d="M2838.95 177.03L2836.28 170.07C2835.38 172.26 2834.45 174.72 2833.58 177.03H2838.95ZM2826.59 186V185.04L2827.34 184.95C2828.21 184.86 2828.57 184.56 2829.17 183.18C2831.18 178.62 2834.54 170.01 2836.4 164.94H2838.59C2840.48 170.16 2844.11 178.74 2846.18 183.54C2846.63 184.59 2846.9 184.86 2847.8 184.95L2848.55 185.04V186H2839.34V185.04L2840.15 184.95C2841.02 184.86 2841.38 184.62 2841.38 184.05C2841.38 183.24 2840.42 180.99 2839.52 178.62H2833.04C2832.05 181.2 2831.27 183.39 2831.27 183.99C2831.27 184.59 2831.6 184.86 2832.47 184.95L2833.31 185.04V186H2826.59ZM2860.61 182.76C2860.64 183.9 2861.9 184.26 2865.2 184.26C2868.35 184.26 2870.03 183.42 2870.33 179.07H2871.38V186H2853.8V185.01L2854.76 184.92C2855.99 184.8 2856.38 184.53 2856.41 183.24C2856.47 180.6 2856.5 178.17 2856.5 175.56C2856.5 172.95 2856.47 170.58 2856.41 168C2856.38 166.71 2855.99 166.44 2854.76 166.32L2853.8 166.23V165.18H2863.43V166.23L2862.29 166.32C2861.09 166.41 2860.79 166.77 2860.73 168C2860.64 170.16 2860.55 173.49 2860.55 175.62C2860.55 178.23 2860.55 181.11 2860.61 182.76ZM2883.54 164.7C2889.99 164.7 2893.89 170.04 2893.89 175.59C2893.89 181.56 2889.12 186.48 2882.67 186.48C2876.37 186.48 2872.11 181.65 2872.11 175.59C2872.11 169.62 2876.88 164.7 2883.54 164.7ZM2883.09 166.23C2879.46 166.23 2876.82 170.13 2876.82 175.59C2876.82 180.84 2879.28 184.98 2883.09 184.98C2886.69 184.98 2889.36 181.23 2889.36 175.59C2889.36 170.73 2887.26 166.23 2883.09 166.23ZM2903.1 186.24C2901.15 181.05 2897.55 172.47 2895.48 167.7C2895.03 166.71 2894.73 166.35 2893.86 166.26L2893.14 166.2V165.18H2902.32V166.2L2901.51 166.26C2900.61 166.32 2900.28 166.68 2900.28 167.19C2900.28 167.28 2900.28 167.37 2900.31 167.49C2901.06 170.13 2903.43 176.07 2905.32 180.99C2907.24 176.25 2909.55 170.1 2910.21 167.73C2910.24 167.55 2910.27 167.37 2910.27 167.22C2910.27 166.68 2909.94 166.32 2909.1 166.26L2908.23 166.2V165.18H2915.04V166.2L2914.29 166.26C2913.36 166.35 2913.06 166.71 2912.46 168.06C2910.45 172.62 2907.09 181.2 2905.2 186.24H2903.1ZM2920.7 174.3H2922.92C2924.96 174.3 2925.59 174 2925.71 171.54H2926.82V178.47H2925.71C2925.59 176.25 2925.02 175.71 2922.98 175.71H2920.7C2920.7 178.23 2920.7 181.32 2920.76 182.85C2920.79 183.99 2921.63 184.38 2925.02 184.38C2928.08 184.38 2929.1 183.54 2929.28 180.15H2930.3V186H2913.95V185.01L2914.91 184.92C2916.14 184.8 2916.53 184.53 2916.56 183.24C2916.62 180.6 2916.65 178.17 2916.65 175.56C2916.65 172.95 2916.62 170.52 2916.56 167.94C2916.53 166.65 2916.14 166.38 2914.91 166.32L2913.95 166.23V165.18H2930.3V171.24H2929.28C2929.1 167.79 2928.14 166.77 2924.93 166.77C2923.4 166.77 2922.08 166.77 2920.88 166.83C2920.79 168.63 2920.73 172.05 2920.7 174.3ZM2856.51 215.24C2856.54 216.47 2856.87 216.86 2858.07 216.92L2860.08 217.01V218H2849.7V217.01L2850.66 216.92C2851.89 216.8 2852.28 216.53 2852.31 215.24C2852.37 212.6 2852.4 210.17 2852.4 207.56C2852.4 204.95 2852.37 202.58 2852.31 200C2852.28 198.71 2851.89 198.44 2850.66 198.32L2849.7 198.23V197.18H2866.05V203.45H2865.03C2864.85 199.79 2863.89 198.77 2860.68 198.77C2859.15 198.77 2857.83 198.77 2856.63 198.83C2856.54 200.75 2856.48 204.29 2856.45 206.78H2859.03C2861.07 206.78 2861.64 206.42 2861.76 204.05H2862.87V211.07H2861.76C2861.64 208.79 2861.13 208.19 2859.09 208.19H2856.45C2856.45 210.41 2856.45 213.11 2856.51 215.24ZM2878.04 196.7C2884.49 196.7 2888.39 202.04 2888.39 207.59C2888.39 213.56 2883.62 218.48 2877.17 218.48C2870.87 218.48 2866.61 213.65 2866.61 207.59C2866.61 201.62 2871.38 196.7 2878.04 196.7ZM2877.59 198.23C2873.96 198.23 2871.32 202.13 2871.32 207.59C2871.32 212.84 2873.78 216.98 2877.59 216.98C2881.19 216.98 2883.86 213.23 2883.86 207.59C2883.86 202.73 2881.76 198.23 2877.59 198.23ZM2889.47 218V217.01L2890.43 216.92C2891.66 216.8 2892.05 216.53 2892.08 215.24C2892.14 212.6 2892.17 210.17 2892.17 207.56C2892.17 204.95 2892.14 202.58 2892.08 200C2892.05 198.71 2891.66 198.44 2890.43 198.32L2889.47 198.23V197.18H2899.22C2905.1 197.18 2907.68 199.67 2907.68 202.76C2907.68 205.67 2905.61 207.47 2902.16 207.86C2903.36 208.28 2904.26 209.03 2905.13 210.11C2906.48 211.82 2907.44 213.71 2908.7 215.45C2909.48 216.53 2909.93 216.8 2910.71 216.92L2911.37 217.01V218H2905.1C2903.84 215.57 2902.52 213.23 2900.9 210.8C2899.79 209.18 2898.98 208.49 2897.99 208.43C2897.57 208.4 2896.91 208.34 2896.22 208.25C2896.22 210.77 2896.22 213.92 2896.28 215.24C2896.31 216.47 2896.64 216.83 2897.84 216.92L2898.89 217.01V218H2889.47ZM2896.22 206.81C2897.12 206.93 2897.87 206.99 2898.62 206.99C2901.53 206.99 2903.15 205.34 2903.15 202.88C2903.15 200.57 2901.74 198.56 2898.14 198.56C2897.45 198.56 2897 198.59 2896.37 198.71C2896.31 200.57 2896.25 204.53 2896.22 206.81Z" fill="black"/>
<path d="M2872.53 355H2831.44V350.392L2835.54 350.008C2840.79 349.496 2842.45 348.344 2842.58 342.84C2842.83 331.576 2842.96 321.208 2842.96 310.072C2842.96 298.936 2842.83 289.592 2842.58 278.584C2842.45 273.08 2840.79 271.928 2835.54 271.416L2831.44 271.032V266.168H2866.77C2870.1 266.168 2873.3 266.296 2876.5 266.424C2911.83 267.32 2927.44 283.832 2927.44 308.152C2927.44 336.056 2906.96 355 2872.53 355ZM2863.57 340.28C2863.7 346.68 2865.75 347.96 2875.09 347.96C2891.47 347.96 2905.68 334.264 2905.68 309.432C2905.68 283.96 2895.7 273.08 2872.4 273.08C2867.92 273.08 2866.13 273.336 2863.95 273.72C2863.7 281.784 2863.31 300.728 2863.31 310.2C2863.31 321.208 2863.44 332.856 2863.57 340.28ZM2872.81 416.824H2882.16C2890.86 416.824 2893.55 415.672 2894.06 405.176H2899.18V434.872H2894.06C2893.55 425.4 2891.12 423.224 2882.41 423.224H2872.81C2872.81 433.848 2872.81 445.88 2873.07 452.408C2873.2 457.656 2876.4 459.576 2890.35 459.576C2902.89 459.576 2907.37 455.48 2908.14 441.784H2912.88V467H2840.94V462.392L2845.04 462.008C2850.29 461.496 2851.95 460.344 2852.08 454.84C2852.33 443.576 2852.46 433.592 2852.46 422.456C2852.46 411.32 2852.33 401.208 2852.08 390.2C2851.95 384.696 2850.29 383.544 2845.04 383.416L2840.94 383.032V378.168H2912.88V404.28H2908.14C2907.37 389.944 2903.28 385.336 2889.84 385.336C2883.31 385.336 2877.93 385.336 2873.58 385.592C2873.2 392.888 2872.94 407.48 2872.81 416.824ZM2890.67 497.848C2890.29 507.704 2890.03 526.776 2890.03 534.712C2890.03 545.848 2890.03 561.08 2890.29 566.84C2890.41 572.088 2891.82 573.624 2896.94 574.008L2901.42 574.392V579H2858.16V574.392L2862.25 574.008C2867.5 573.496 2869.17 572.344 2869.29 566.84C2869.55 555.576 2869.68 545.592 2869.68 534.456C2869.68 524.344 2869.55 508.856 2869.42 497.848C2866.86 497.848 2864.43 497.848 2862 498.104C2847.92 499 2845.36 501.56 2844.08 516.152H2838.96V490.168H2921.26V516.152H2916.4C2915.25 501.816 2911.92 499 2898.22 498.104C2895.79 497.848 2893.1 497.848 2890.67 497.848ZM2883.1 653.496L2871.96 625.08C2868.38 633.784 2864.54 644.024 2861.08 653.496H2883.1ZM2831.13 691V686.52L2834.45 686.264C2837.66 686.008 2839.45 684.472 2842.01 678.968C2849.56 662.712 2865.82 620.6 2872.86 601.144H2883.86C2891.16 621.24 2908.95 662.456 2917.14 680.376C2919.06 684.472 2920.22 686.008 2923.8 686.264L2927.13 686.52V691H2884.76V686.52L2888.34 686.264C2892.06 686.008 2893.46 684.6 2893.46 682.296C2893.46 679.864 2890.01 671.288 2885.78 660.664H2858.65C2854.04 672.312 2851.22 680.888 2851.22 682.296C2851.22 684.6 2852.63 686.008 2856.09 686.264L2859.93 686.52V691H2831.13ZM2889.94 758.712C2889.94 769.848 2889.94 785.08 2890.19 790.84C2890.32 796.088 2891.73 797.624 2896.85 798.008L2901.33 798.392V803H2858.07V798.392L2862.16 798.008C2867.41 797.496 2869.07 796.344 2869.2 790.84C2869.46 779.576 2869.59 769.592 2869.59 758.456C2869.59 747.32 2869.46 737.592 2869.2 726.584C2869.07 721.08 2867.41 719.928 2862.16 719.416L2858.07 719.032V714.168H2901.84V719.032L2897.36 719.416C2892.24 719.8 2890.96 721.336 2890.71 726.584C2890.32 735.416 2889.94 749.624 2889.94 758.712ZM2874.32 900.152C2874.45 905.272 2879.44 907.064 2892.88 907.064C2905.94 907.064 2912.85 902.968 2914.51 884.536H2919.25V915H2842.19V910.392L2846.29 910.008C2851.54 909.496 2853.2 908.344 2853.33 902.84C2853.58 891.576 2853.71 881.592 2853.71 870.456C2853.71 859.32 2853.58 849.592 2853.33 838.584C2853.2 833.08 2851.54 831.928 2846.29 831.416L2842.19 831.032V826.168H2886.48V831.032L2881.49 831.416C2876.37 831.8 2875.09 833.336 2874.83 838.584C2874.45 847.416 2874.06 861.624 2874.06 870.712C2874.06 881.848 2874.06 893.368 2874.32 900.152Z" fill="black"/>
<g clip-path="url(#clip0_1351_4092)">
<mask id="mask0_1351_4092" style="mask-type:luminance" maskUnits="userSpaceOnUse" x="2744" y="1019" width="147" height="25">
<path d="M2890.5 1019H2744.5V1043.97H2890.5V1019Z" fill="white"/>
</mask>
<g mask="url(#mask0_1351_4092)">
<path d="M2777.85 1030.26C2777.74 1029.72 2777.8 1029.32 2778.02 1029.05C2778.23 1028.78 2778.58 1028.67 2778.83 1028.67C2779.15 1028.67 2779.91 1028.78 2779.91 1029.91C2779.91 1031.04 2778.85 1032.28 2778.85 1032.31L2778.53 1032.74C2778.18 1031.42 2777.88 1030.37 2777.85 1030.26ZM2778.5 1042.3C2778.5 1042.3 2778.5 1042.41 2778.5 1042.46C2778.5 1042.87 2778.18 1043.19 2777.77 1043.19C2777.37 1043.19 2777.04 1042.87 2777.04 1042.46C2777.04 1042.22 2777.15 1042.01 2777.37 1041.87L2777.69 1041.66L2775.04 1037.45C2775.04 1037.45 2774.93 1037.21 2774.93 1037.1C2774.93 1036.73 2775.23 1036.43 2775.61 1036.43C2775.63 1036.43 2775.69 1036.43 2775.71 1036.43L2776.17 1035.78L2773.63 1030.37L2775.06 1029.32L2778.5 1042.33V1042.3ZM2771.27 1042.87C2771.14 1043.06 2770.92 1043.16 2770.68 1043.16C2770.27 1043.16 2769.95 1042.84 2769.95 1042.44C2769.95 1042.03 2770.27 1041.71 2770.68 1041.71C2770.76 1041.71 2770.84 1041.71 2770.92 1041.74L2771.3 1041.87L2773.68 1035.22C2773.82 1034.84 2774.14 1034.76 2774.31 1034.73C2774.58 1034.71 2774.82 1034.76 2774.9 1034.87L2775.25 1035.62C2774.6 1035.78 2774.14 1036.38 2774.14 1037.05C2774.14 1037.32 2774.23 1037.59 2774.36 1037.83L2774.58 1038.18L2771.27 1042.84V1042.87ZM2770.62 1031.58C2770.62 1031.58 2770.33 1031.74 2770.16 1031.74C2770.03 1031.74 2769.89 1031.72 2769.76 1031.61C2769.57 1031.47 2769.43 1031.26 2769.43 1031.02C2769.43 1030.72 2769.62 1030.45 2769.89 1030.34C2770.08 1030.26 2770.3 1030.26 2770.46 1030.34L2770.68 1030.45L2774.6 1027.54L2774.39 1026.7L2772.71 1027.94C2772.66 1027.67 2772.63 1027.43 2772.63 1027.16C2772.63 1025.44 2773.66 1023.9 2775.28 1023.26C2775.31 1023.26 2775.44 1023.2 2775.58 1023.15H2776.17C2776.17 1023.15 2776.23 1023.18 2776.26 1023.18C2776.61 1023.18 2776.93 1023.04 2777.18 1022.8C2777.45 1022.56 2777.61 1022.21 2777.61 1021.83V1020.35C2778.91 1020.72 2779.83 1021.91 2779.83 1023.28C2779.83 1024.23 2779.4 1025.12 2778.64 1025.68L2770.6 1031.61L2770.62 1031.58ZM2768.54 1037.97C2768.49 1038.34 2768.4 1038.72 2768.27 1039.07L2756.2 1027.57H2769.54L2769.33 1029.72C2768.89 1029.99 2768.59 1030.48 2768.59 1031.02C2768.59 1031.45 2768.78 1031.85 2769.08 1032.12L2768.51 1037.94L2768.54 1037.97ZM2766.73 1041.44H2758.47C2758.14 1041.14 2757.85 1040.79 2757.6 1040.42H2767.57C2767.32 1040.79 2767.02 1041.12 2766.7 1041.44M2762.58 1043.19C2761.39 1043.19 2760.23 1042.76 2759.23 1042.09H2765.91C2764.94 1042.79 2763.75 1043.19 2762.58 1043.19ZM2756.82 1038.77H2766.78L2767.84 1039.8H2757.22C2757.06 1039.47 2756.93 1039.12 2756.82 1038.77ZM2756.66 1037.97L2756.57 1037.13H2765.05L2766.1 1038.15H2756.68C2756.68 1038.15 2756.68 1038.05 2756.68 1037.99M2756.44 1035.49H2763.34L2764.4 1036.48H2756.55L2756.44 1035.49ZM2756.28 1033.84H2761.61L2762.67 1034.87H2756.38L2756.28 1033.84ZM2756.11 1032.2H2759.88L2760.93 1033.22H2756.22L2756.11 1032.2ZM2755.06 1031.77C2754.9 1031.77 2754.73 1031.72 2754.6 1031.61L2746.56 1025.68C2745.8 1025.09 2745.37 1024.23 2745.37 1023.28C2745.37 1021.91 2746.29 1020.72 2747.59 1020.35V1021.88C2747.59 1022.26 2747.75 1022.61 2748.02 1022.85C2748.26 1023.09 2748.59 1023.23 2748.94 1023.23C2748.94 1023.23 2748.99 1023.23 2749.02 1023.23H2749.62C2749.62 1023.23 2749.86 1023.28 2749.91 1023.28C2751.54 1023.93 2752.57 1025.47 2752.57 1027.19C2752.57 1027.46 2752.54 1027.73 2752.49 1027.97L2750.81 1026.73L2750.59 1027.57L2754.52 1030.48L2754.73 1030.37C2754.92 1030.29 2755.14 1030.29 2755.3 1030.37C2755.57 1030.48 2755.76 1030.75 2755.76 1031.04C2755.76 1031.28 2755.63 1031.5 2755.44 1031.63C2755.3 1031.72 2755.17 1031.77 2755.03 1031.77M2748.99 1035.78L2749.45 1036.43C2749.45 1036.43 2749.54 1036.43 2749.56 1036.43C2749.94 1036.43 2750.24 1036.73 2750.24 1037.1C2750.24 1037.24 2750.21 1037.35 2750.13 1037.45L2747.48 1041.66L2747.8 1041.87C2747.99 1042.01 2748.13 1042.22 2748.13 1042.46C2748.13 1042.87 2747.8 1043.19 2747.4 1043.19C2746.99 1043.19 2746.67 1042.87 2746.67 1042.46C2746.67 1042.41 2746.67 1042.36 2746.67 1042.3L2750.1 1029.29L2751.51 1030.34L2748.97 1035.76L2748.99 1035.78ZM2750.89 1034.76C2751.05 1034.76 2751.38 1034.87 2751.51 1035.24L2753.89 1041.9L2754.27 1041.76C2754.27 1041.76 2754.44 1041.74 2754.52 1041.74C2754.92 1041.74 2755.25 1042.06 2755.25 1042.46C2755.25 1042.87 2754.92 1043.19 2754.52 1043.19C2754.27 1043.19 2754.06 1043.08 2753.92 1042.9L2750.62 1038.23L2750.86 1037.88C2751 1037.64 2751.08 1037.37 2751.08 1037.1C2751.08 1036.4 2750.59 1035.84 2749.97 1035.68L2750.32 1034.92C2750.32 1034.92 2750.67 1034.73 2750.92 1034.79M2754.19 1022.66L2754.06 1022.48C2754.06 1022.48 2753.92 1022.21 2753.92 1022.04C2753.92 1021.64 2754.25 1021.32 2754.65 1021.32C2755.06 1021.32 2755.38 1021.64 2755.38 1022.04C2755.38 1022.13 2755.38 1022.21 2755.33 1022.29L2753.19 1026.84C2753.16 1026.35 2753.05 1025.87 2752.87 1025.41L2754.16 1022.66H2754.19ZM2756.06 1029.88C2756.06 1029.88 2755.92 1029.78 2755.84 1029.72L2755.71 1028.21L2757.44 1029.88H2756.06ZM2756.49 1030.53H2758.12L2759.17 1031.55H2756.47C2756.52 1031.39 2756.55 1031.23 2756.55 1031.04C2756.55 1030.85 2756.52 1030.69 2756.47 1030.53M2756.01 1022.66L2756.25 1025.68H2768.84L2769.11 1022.66L2771.87 1028.54L2770.49 1029.56C2770.49 1029.56 2770.25 1029.51 2770.11 1029.51L2770.38 1026.79H2754.79L2755.06 1029.51C2755.06 1029.51 2754.81 1029.51 2754.68 1029.56L2753.3 1028.54L2756.06 1022.66H2756.01ZM2757.09 1020.1L2757.14 1021.24H2757.79L2757.74 1020.1H2758.39L2758.44 1021.83H2756.6L2756.47 1020.1H2757.12H2757.09ZM2759.66 1020.1V1021.24H2760.34V1020.1H2760.96V1021.83H2759.09L2759.04 1020.1H2759.69H2759.66ZM2762.23 1020.1V1021.24H2762.88V1020.1H2763.53V1021.83H2761.61V1020.1H2762.23ZM2764.8 1020.1V1021.24H2765.43V1020.1H2766.1L2766.05 1021.83H2764.15V1020.1H2764.83H2764.8ZM2767.38 1020.1L2767.32 1021.24H2767.97L2768.03 1020.1H2768.68L2768.54 1021.83H2766.7L2766.75 1020.1H2767.4H2767.38ZM2768.4 1023.36H2766.65V1022.48H2768.49L2768.4 1023.36ZM2768.35 1024.01L2768.27 1025.06H2756.84L2756.76 1024.01H2768.35ZM2758.47 1023.36H2756.68L2756.6 1022.48H2758.42V1023.36H2758.47ZM2760.96 1023.36H2759.09V1022.48H2760.93V1023.36H2760.96ZM2763.45 1023.36H2761.58V1022.48H2763.45V1023.36ZM2765.94 1023.36H2764.07V1022.48H2765.97V1023.36H2765.94ZM2770.46 1021.32C2770.87 1021.32 2771.19 1021.64 2771.19 1022.04C2771.19 1022.21 2771.14 1022.34 2771.06 1022.48L2770.92 1022.66L2772.22 1025.41C2772.06 1025.87 2771.95 1026.33 2771.9 1026.84L2769.76 1022.29C2769.76 1022.29 2769.7 1022.13 2769.7 1022.04C2769.7 1021.64 2770.03 1021.32 2770.44 1021.32M2746.69 1032.74L2746.4 1032.34C2746.1 1031.96 2745.34 1030.83 2745.34 1029.94C2745.34 1028.83 2746.1 1028.7 2746.42 1028.7C2746.67 1028.7 2747.04 1028.81 2747.26 1029.08C2747.48 1029.34 2747.53 1029.75 2747.42 1030.29C2747.42 1030.4 2747.13 1031.45 2746.75 1032.77M2779.67 1035.43C2779.67 1035.43 2779.42 1035.46 2779.31 1035.51C2779.15 1034.95 2778.99 1034.36 2778.83 1033.76L2779.5 1032.85C2779.5 1032.85 2780.75 1031.28 2780.75 1029.96C2780.75 1028 2779.07 1027.94 2778.88 1027.94C2778.45 1027.94 2777.83 1028.11 2777.42 1028.62C2777.04 1029.08 2776.93 1029.7 2777.09 1030.48C2777.12 1030.61 2777.53 1032.12 2777.93 1033.6L2777.28 1034.49L2775.8 1028.83L2779.15 1026.35C2780.1 1025.63 2780.64 1024.5 2780.64 1023.31C2780.64 1021.51 2779.37 1019.94 2777.64 1019.57V1019.16L2776.99 1019V1019.43L2775.06 1019.32H2774.41V1020.86H2775.04C2775.23 1020.86 2775.36 1021.02 2775.36 1021.18C2775.36 1021.34 2775.2 1021.51 2775.04 1021.51L2772.93 1021.26L2773.09 1021.91L2774.96 1022.13C2774.96 1022.13 2774.98 1022.13 2775.01 1022.13C2775.55 1022.13 2775.98 1021.69 2775.98 1021.16C2775.98 1020.62 2775.55 1020.19 2775.04 1020.19V1019.92L2776.96 1020.02V1021.83C2776.96 1022.02 2776.88 1022.21 2776.74 1022.34C2776.61 1022.48 2776.42 1022.53 2776.2 1022.53L2774.04 1022.39L2774.2 1023.04C2773.6 1023.42 2773.12 1023.93 2772.74 1024.5L2771.9 1022.69C2772.01 1022.48 2772.06 1022.23 2772.06 1021.99C2772.06 1021.16 2771.38 1020.48 2770.54 1020.48C2770 1020.48 2769.54 1020.75 2769.27 1021.16L2769.43 1019.38H2755.79L2755.92 1021.16C2755.65 1020.75 2755.19 1020.48 2754.65 1020.48C2753.81 1020.48 2753.14 1021.16 2753.14 1021.99C2753.14 1022.23 2753.19 1022.48 2753.3 1022.69L2752.46 1024.5C2752.08 1023.93 2751.59 1023.45 2751 1023.07L2751.19 1022.42L2749.02 1022.56C2748.83 1022.56 2748.64 1022.5 2748.48 1022.37C2748.34 1022.23 2748.26 1022.04 2748.26 1021.86V1020.08L2750.19 1019.97V1020.24C2749.64 1020.24 2749.21 1020.67 2749.21 1021.21C2749.21 1021.75 2749.64 1022.18 2750.19 1022.18H2750.24L2752.13 1021.96L2752.3 1021.32L2750.19 1021.56C2750 1021.56 2749.86 1021.4 2749.86 1021.24C2749.86 1021.07 2750.02 1020.91 2750.19 1020.91H2750.81V1019.32H2750.19L2748.24 1019.43V1019L2747.59 1019.16V1019.51C2745.85 1019.92 2744.58 1021.45 2744.58 1023.28C2744.58 1024.47 2745.12 1025.6 2746.07 1026.33L2749.43 1028.81L2747.94 1034.46L2747.29 1033.57C2747.69 1032.09 2748.1 1030.58 2748.13 1030.45C2748.29 1029.67 2748.18 1029.05 2747.83 1028.59C2747.42 1028.11 2746.83 1027.92 2746.37 1027.92C2746.18 1027.89 2744.5 1027.94 2744.5 1029.94C2744.5 1031.23 2745.64 1032.69 2745.75 1032.82L2746.42 1033.74C2746.26 1034.33 2746.1 1034.92 2745.93 1035.49C2745.83 1035.43 2745.69 1035.41 2745.58 1035.41C2745.07 1035.41 2744.66 1035.81 2744.66 1036.32C2744.66 1036.83 2745.07 1037.24 2745.58 1037.24C2746.02 1037.24 2746.37 1036.94 2746.48 1036.54C2746.53 1036.32 2746.77 1035.49 2747.02 1034.52L2747.67 1035.41L2745.91 1042.06C2745.91 1042.06 2745.88 1042.3 2745.88 1042.41C2745.88 1043.25 2746.56 1043.95 2747.42 1043.95C2748.29 1043.95 2748.97 1043.27 2748.97 1042.41C2748.97 1042.03 2748.83 1041.68 2748.59 1041.41L2750.19 1038.91L2753.3 1043.3C2753.6 1043.7 2754.06 1043.95 2754.54 1043.95C2755.38 1043.95 2756.09 1043.27 2756.09 1042.41C2756.09 1041.55 2755.41 1040.88 2754.54 1040.88C2754.52 1040.88 2754.49 1040.88 2754.46 1040.88L2752.32 1034.89C2752.13 1034.36 2751.67 1033.98 2751.05 1033.9C2750.97 1033.9 2750.86 1033.9 2750.78 1033.9L2752.24 1030.8L2754.14 1032.2C2754.41 1032.42 2754.73 1032.52 2755.09 1032.52C2755.17 1032.52 2755.27 1032.52 2755.36 1032.52L2755.9 1038.05C2756.06 1039.55 2756.87 1041.04 2758.12 1042.17C2759.42 1043.33 2761.01 1043.97 2762.61 1043.97C2764.21 1043.97 2765.81 1043.33 2767.11 1042.17C2768.38 1041.04 2769.19 1039.53 2769.33 1038.02L2769.87 1032.5C2769.87 1032.5 2770.06 1032.5 2770.14 1032.5C2770.49 1032.5 2770.81 1032.39 2771.08 1032.17L2772.98 1030.77L2774.44 1033.87C2774.44 1033.87 2774.25 1033.87 2774.17 1033.87C2773.58 1033.95 2773.12 1034.33 2772.9 1034.89L2770.76 1040.88C2770.76 1040.88 2770.71 1040.88 2770.68 1040.88C2769.84 1040.88 2769.14 1041.55 2769.14 1042.41C2769.14 1043.27 2769.81 1043.95 2770.68 1043.95C2771.17 1043.95 2771.65 1043.7 2771.92 1043.3L2775.04 1038.91L2776.63 1041.41C2776.39 1041.68 2776.26 1042.03 2776.26 1042.41C2776.26 1043.25 2776.93 1043.95 2777.8 1043.95C2778.67 1043.95 2779.34 1043.27 2779.34 1042.41C2779.34 1042.3 2779.34 1042.2 2779.31 1042.09L2777.56 1035.41L2778.23 1034.52C2778.5 1035.49 2778.72 1036.32 2778.77 1036.54C2778.88 1036.94 2779.23 1037.24 2779.67 1037.24C2780.18 1037.24 2780.59 1036.83 2780.59 1036.32C2780.59 1035.81 2780.18 1035.41 2779.67 1035.41" fill="black"/>
</g>
<path d="M2789.41 1027.65V1020.21H2794.42V1021.07H2790.33V1023.34H2793.91V1024.23H2790.33V1026.79H2794.42V1027.65H2789.41Z" fill="black"/>
<path d="M2795.83 1027.65H2796.75V1022.31H2795.83V1027.65ZM2795.77 1021.1H2796.83V1020.05H2795.77V1021.1Z" fill="black"/>
<mask id="mask1_1351_4092" style="mask-type:luminance" maskUnits="userSpaceOnUse" x="2744" y="1019" width="147" height="25">
<path d="M2890.5 1019H2744.5V1043.97H2890.5V1019Z" fill="white"/>
</mask>
<g mask="url(#mask1_1351_4092)">
<path d="M2802.06 1027.65V1024.28C2802.06 1023.47 2801.73 1023.01 2800.89 1023.01C2800.38 1023.01 2799.97 1023.34 2799.73 1023.82C2799.54 1024.2 2799.54 1024.76 2799.54 1025.17V1027.65H2798.64V1022.31H2799.43L2799.51 1023.12C2799.78 1022.5 2800.54 1022.18 2801.14 1022.18C2802.35 1022.18 2802.98 1022.91 2802.98 1024.15V1027.65H2802.08H2802.06Z" fill="black"/>
<path d="M2807.79 1023.45C2807.58 1023.15 2807.2 1022.96 2806.74 1022.96C2805.76 1022.96 2805.3 1023.74 2805.28 1024.52H2808.12C2808.12 1024.12 2808.01 1023.71 2807.79 1023.45ZM2809.04 1025.3H2805.25C2805.25 1025.79 2805.44 1026.33 2805.76 1026.65C2806.01 1026.89 2806.33 1027.03 2806.74 1027.03C2807.14 1027.03 2807.52 1026.92 2807.74 1026.68C2807.9 1026.52 2807.98 1026.38 2808.06 1026.09H2808.93C2808.85 1026.62 2808.55 1027.11 2808.12 1027.41C2807.74 1027.65 2807.25 1027.81 2806.77 1027.81C2806.01 1027.81 2805.41 1027.49 2804.98 1027C2804.55 1026.49 2804.3 1025.79 2804.3 1025.01C2804.3 1024.36 2804.41 1023.8 2804.71 1023.31C2805.09 1022.66 2805.79 1022.21 2806.74 1022.21C2807.42 1022.21 2807.98 1022.48 2808.36 1022.88C2808.8 1023.34 2809.04 1024.04 2809.04 1024.74V1025.28V1025.3Z" fill="black"/>
</g>
<path d="M2817.57 1027.65L2815.32 1023.79L2813.78 1025.55V1027.65H2812.86V1020.21H2813.78V1024.17L2817.22 1020.21H2818.41L2815.97 1023.04L2818.65 1027.65H2817.57Z" fill="black"/>
<mask id="mask2_1351_4092" style="mask-type:luminance" maskUnits="userSpaceOnUse" x="2744" y="1019" width="147" height="25">
<path d="M2890.5 1019H2744.5V1043.97H2890.5V1019Z" fill="white"/>
</mask>
<g mask="url(#mask2_1351_4092)">
<path d="M2822.93 1027.65L2822.85 1026.84C2822.58 1027.46 2821.87 1027.78 2821.25 1027.78C2820.03 1027.78 2819.41 1027.06 2819.41 1025.82V1022.31H2820.3V1025.68C2820.3 1026.49 2820.6 1026.95 2821.44 1026.95C2821.79 1026.95 2822.09 1026.79 2822.33 1026.54C2822.66 1026.19 2822.77 1025.63 2822.77 1025.06V1022.29H2823.66V1027.62H2822.87L2822.93 1027.65Z" fill="black"/>
<path d="M2826.66 1027.73C2825.88 1027.73 2825.55 1027.27 2825.55 1026.44V1020.08H2826.45V1026.38C2826.45 1026.73 2826.56 1026.92 2826.93 1026.92C2827.23 1026.92 2827.31 1026.92 2827.31 1026.92V1027.68C2827.31 1027.68 2827.12 1027.73 2826.69 1027.73" fill="black"/>
<path d="M2830.26 1027.73C2829.1 1027.73 2828.8 1027 2828.8 1026.3V1023.12H2827.77V1022.37H2828.8V1021.02L2829.7 1020.81V1022.37H2831.29V1023.12H2829.7V1026.19C2829.7 1026.71 2829.91 1026.92 2830.43 1026.92C2830.81 1026.92 2831.35 1026.84 2831.35 1026.84V1027.59C2831.1 1027.65 2830.78 1027.73 2830.29 1027.73" fill="black"/>
<path d="M2835.95 1027.65L2835.87 1026.84C2835.6 1027.46 2834.89 1027.78 2834.27 1027.78C2833.05 1027.78 2832.43 1027.06 2832.43 1025.82V1022.31H2833.32V1025.68C2833.32 1026.49 2833.62 1026.95 2834.46 1026.95C2834.81 1026.95 2835.11 1026.79 2835.35 1026.54C2835.68 1026.19 2835.79 1025.63 2835.79 1025.06V1022.29H2836.68V1027.62H2835.89L2835.95 1027.65Z" fill="black"/>
<path d="M2840.98 1023.18C2840.55 1023.18 2840.2 1023.37 2839.96 1023.61C2839.52 1024.01 2839.47 1024.77 2839.47 1025.3V1027.68H2838.58V1022.34H2839.36L2839.44 1023.28C2839.71 1022.64 2840.36 1022.31 2841.04 1022.31C2841.17 1022.31 2841.34 1022.31 2841.47 1022.34V1023.2C2841.31 1023.18 2841.15 1023.15 2840.98 1023.15" fill="black"/>
</g>
<path d="M2842.56 1027.65H2843.48V1022.31H2842.56V1027.65ZM2842.5 1021.1H2843.56V1020.05H2842.5V1021.1Z" fill="black"/>
<mask id="mask3_1351_4092" style="mask-type:luminance" maskUnits="userSpaceOnUse" x="2744" y="1019" width="147" height="25">
<path d="M2890.5 1019H2744.5V1043.97H2890.5V1019Z" fill="white"/>
</mask>
<g mask="url(#mask3_1351_4092)">
<path d="M2848.78 1027.65V1024.28C2848.78 1023.47 2848.46 1023.01 2847.62 1023.01C2847.1 1023.01 2846.7 1023.34 2846.45 1023.82C2846.26 1024.2 2846.26 1024.76 2846.26 1025.17V1027.65H2845.37V1022.31H2846.16L2846.24 1023.12C2846.51 1022.5 2847.27 1022.18 2847.86 1022.18C2849.08 1022.18 2849.7 1022.91 2849.7 1024.15V1027.65H2848.81H2848.78Z" fill="black"/>
<path d="M2854.98 1027.19C2854.57 1027.62 2853.92 1027.78 2853.25 1027.78C2852.57 1027.78 2851.98 1027.62 2851.52 1027.19C2851.19 1026.87 2851 1026.44 2851 1025.98H2851.89C2851.89 1026.35 2852.08 1026.62 2852.33 1026.81C2852.57 1027 2852.95 1027.05 2853.28 1027.05C2853.65 1027.05 2853.98 1027 2854.25 1026.76C2854.41 1026.65 2854.52 1026.44 2854.52 1026.17C2854.52 1025.76 2854.25 1025.49 2853.68 1025.41L2852.46 1025.25C2851.65 1025.12 2851.16 1024.63 2851.16 1023.82C2851.16 1023.42 2851.35 1023.01 2851.6 1022.77C2851.95 1022.42 2852.52 1022.18 2853.17 1022.18C2853.87 1022.18 2854.52 1022.39 2854.87 1022.85C2855.12 1023.15 2855.25 1023.44 2855.25 1023.88H2854.36C2854.36 1023.61 2854.22 1023.34 2854.06 1023.2C2853.84 1023.01 2853.55 1022.93 2853.19 1022.93C2852.98 1022.93 2852.81 1022.93 2852.57 1023.04C2852.25 1023.18 2852.03 1023.47 2852.03 1023.77C2852.03 1024.2 2852.3 1024.39 2852.76 1024.47C2853.06 1024.52 2853.46 1024.55 2854.06 1024.66C2854.82 1024.79 2855.41 1025.33 2855.41 1026.14C2855.41 1026.6 2855.25 1026.95 2854.98 1027.22" fill="black"/>
<path d="M2858.53 1027.73C2857.36 1027.73 2857.06 1027 2857.06 1026.3V1023.12H2856.04V1022.37H2857.06V1021.02L2857.96 1020.8V1022.37H2859.56V1023.12H2857.96V1026.19C2857.96 1026.7 2858.17 1026.92 2858.69 1026.92C2859.07 1026.92 2859.61 1026.84 2859.61 1026.84V1027.59C2859.37 1027.65 2859.04 1027.73 2858.55 1027.73" fill="black"/>
</g>
<path d="M2860.8 1027.65H2861.72V1022.31H2860.8V1027.65ZM2860.75 1021.1H2861.8V1020.05H2860.75V1021.1Z" fill="black"/>
<mask id="mask4_1351_4092" style="mask-type:luminance" maskUnits="userSpaceOnUse" x="2744" y="1019" width="147" height="25">
<path d="M2890.5 1019H2744.5V1043.97H2890.5V1019Z" fill="white"/>
</mask>
<g mask="url(#mask4_1351_4092)">
<path d="M2865.3 1027.73C2864.13 1027.73 2863.83 1027 2863.83 1026.3V1023.12H2862.81V1022.37H2863.83V1021.02L2864.73 1020.8V1022.37H2866.33V1023.12H2864.73V1026.19C2864.73 1026.7 2864.94 1026.92 2865.46 1026.92C2865.84 1026.92 2866.38 1026.84 2866.38 1026.84V1027.59C2866.14 1027.65 2865.81 1027.73 2865.32 1027.73" fill="black"/>
<path d="M2870.95 1027.65L2870.87 1026.84C2870.6 1027.46 2869.9 1027.78 2869.28 1027.78C2868.06 1027.78 2867.43 1027.05 2867.43 1025.82V1022.31H2868.33V1025.68C2868.33 1026.49 2868.63 1026.95 2869.46 1026.95C2869.82 1026.95 2870.11 1026.79 2870.36 1026.54C2870.68 1026.19 2870.79 1025.63 2870.79 1025.06V1022.29H2871.68V1027.62H2870.9L2870.95 1027.65Z" fill="black"/>
<path d="M2875.31 1027.73C2874.15 1027.73 2873.85 1027 2873.85 1026.3V1023.12H2872.82V1022.37H2873.85V1021.02L2874.75 1020.8V1022.37H2876.34V1023.12H2874.75V1026.19C2874.75 1026.7 2874.96 1026.92 2875.48 1026.92C2875.86 1026.92 2876.4 1026.84 2876.4 1026.84V1027.59C2876.15 1027.65 2875.83 1027.73 2875.34 1027.73" fill="black"/>
</g>
<path d="M2877.59 1027.65H2878.51V1022.31H2877.59V1027.65ZM2877.53 1021.1H2878.59V1020.05H2877.53V1021.1Z" fill="black"/>
<mask id="mask5_1351_4092" style="mask-type:luminance" maskUnits="userSpaceOnUse" x="2744" y="1019" width="147" height="25">
<path d="M2890.5 1019H2744.5V1043.97H2890.5V1019Z" fill="white"/>
</mask>
<g mask="url(#mask5_1351_4092)">
<path d="M2883.3 1023.34C2883.08 1023.12 2882.76 1022.96 2882.32 1022.96C2881.89 1022.96 2881.59 1023.12 2881.38 1023.34C2881 1023.71 2880.89 1024.36 2880.89 1024.98C2880.89 1025.6 2881 1026.25 2881.38 1026.62C2881.59 1026.84 2881.92 1027 2882.32 1027C2882.73 1027 2883.06 1026.84 2883.3 1026.62C2883.68 1026.25 2883.79 1025.6 2883.79 1024.98C2883.79 1024.36 2883.68 1023.71 2883.3 1023.34ZM2883.95 1027.16C2883.54 1027.54 2883 1027.78 2882.32 1027.78C2881.65 1027.78 2881.11 1027.54 2880.7 1027.16C2880.1 1026.6 2879.94 1025.82 2879.94 1024.98C2879.94 1024.15 2880.13 1023.36 2880.7 1022.8C2881.08 1022.42 2881.65 1022.18 2882.32 1022.18C2883 1022.18 2883.54 1022.42 2883.95 1022.8C2884.52 1023.36 2884.71 1024.15 2884.71 1024.98C2884.71 1025.82 2884.52 1026.6 2883.95 1027.16Z" fill="black"/>
<path d="M2889.61 1027.65V1024.28C2889.61 1023.47 2889.28 1023.01 2888.44 1023.01C2887.93 1023.01 2887.52 1023.34 2887.28 1023.82C2887.09 1024.2 2887.09 1024.76 2887.09 1025.17V1027.65H2886.2V1022.31H2886.98L2887.06 1023.12C2887.33 1022.5 2888.09 1022.18 2888.69 1022.18C2889.91 1022.18 2890.53 1022.91 2890.53 1024.15V1027.65H2889.63H2889.61Z" fill="black"/>
<path d="M2792.2 1036.24C2791.98 1036.05 2791.71 1035.89 2791.34 1035.89C2790.14 1035.89 2789.82 1036.97 2789.82 1037.94C2789.82 1038.91 2790.14 1039.99 2791.34 1039.99C2791.71 1039.99 2791.98 1039.82 2792.2 1039.64C2792.63 1039.26 2792.8 1038.61 2792.8 1037.94C2792.8 1037.26 2792.66 1036.62 2792.2 1036.24ZM2792.85 1040.61L2792.8 1039.9C2792.5 1040.44 2791.8 1040.74 2791.2 1040.74C2790.55 1040.74 2790.04 1040.52 2789.68 1040.17C2789.17 1039.66 2788.93 1038.85 2788.93 1037.97C2788.93 1037.08 2789.2 1036.21 2789.74 1035.7C2790.09 1035.38 2790.58 1035.16 2791.2 1035.16C2791.8 1035.16 2792.47 1035.43 2792.74 1035.92V1033.04H2793.64V1040.63H2792.85V1040.61Z" fill="black"/>
<path d="M2798.59 1036.38C2798.37 1036.08 2797.99 1035.89 2797.53 1035.89C2796.56 1035.89 2796.1 1036.67 2796.07 1037.45H2798.91C2798.91 1037.05 2798.81 1036.64 2798.59 1036.38ZM2799.84 1038.23H2796.05C2796.05 1038.72 2796.23 1039.26 2796.56 1039.58C2796.8 1039.82 2797.13 1039.96 2797.53 1039.96C2797.94 1039.96 2798.32 1039.85 2798.54 1039.61C2798.7 1039.47 2798.78 1039.31 2798.86 1039.04H2799.73C2799.65 1039.55 2799.35 1040.07 2798.91 1040.36C2798.54 1040.6 2798.05 1040.77 2797.56 1040.77C2796.8 1040.77 2796.21 1040.44 2795.77 1039.96C2795.34 1039.45 2795.1 1038.75 2795.1 1037.96C2795.1 1037.32 2795.21 1036.75 2795.5 1036.27C2795.88 1035.62 2796.59 1035.16 2797.53 1035.16C2798.21 1035.16 2798.78 1035.43 2799.16 1035.84C2799.59 1036.29 2799.84 1036.99 2799.84 1037.7V1038.23Z" fill="black"/>
<path d="M2803.63 1036.08C2803.19 1036.08 2802.84 1036.27 2802.6 1036.51C2802.16 1036.91 2802.11 1037.67 2802.11 1038.21V1040.58H2801.22V1035.24H2802L2802.08 1036.19C2802.35 1035.54 2803 1035.22 2803.68 1035.22C2803.82 1035.22 2803.98 1035.22 2804.11 1035.24V1036.11C2803.95 1036.08 2803.79 1036.05 2803.63 1036.05" fill="black"/>
<path d="M2812.1 1039.99C2811.59 1040.5 2810.77 1040.74 2809.96 1040.74C2809.04 1040.74 2808.31 1040.5 2807.82 1040.04C2807.34 1039.61 2807.01 1038.96 2807.01 1038.26H2807.99C2807.99 1038.69 2808.2 1039.15 2808.53 1039.45C2808.85 1039.77 2809.45 1039.9 2809.96 1039.9C2810.53 1039.9 2811.02 1039.8 2811.37 1039.47C2811.61 1039.26 2811.75 1038.99 2811.75 1038.61C2811.75 1038.02 2811.37 1037.56 2810.48 1037.4L2809.28 1037.21C2808.17 1037.05 2807.28 1036.43 2807.28 1035.24C2807.28 1034.68 2807.53 1034.14 2807.93 1033.76C2808.45 1033.28 2809.12 1033.04 2809.91 1033.04C2810.64 1033.04 2811.34 1033.28 2811.86 1033.74C2812.32 1034.17 2812.56 1034.71 2812.59 1035.33H2811.61C2811.61 1034.95 2811.45 1034.62 2811.23 1034.38C2810.94 1034.06 2810.5 1033.87 2809.91 1033.87C2809.37 1033.87 2808.91 1034.03 2808.58 1034.38C2808.39 1034.6 2808.28 1034.87 2808.28 1035.19C2808.28 1035.86 2808.85 1036.16 2809.39 1036.24C2809.83 1036.29 2810.23 1036.38 2810.64 1036.43C2811.88 1036.62 2812.72 1037.37 2812.72 1038.56C2812.72 1039.18 2812.45 1039.64 2812.1 1039.99Z" fill="black"/>
<path d="M2815.86 1040.66C2814.7 1040.66 2814.4 1039.93 2814.4 1039.23V1036.05H2813.37V1035.27H2814.4V1033.92L2815.29 1033.71V1035.27H2816.89V1036.05H2815.29V1039.12C2815.29 1039.64 2815.51 1039.85 2816.02 1039.85C2816.4 1039.85 2816.94 1039.77 2816.94 1039.77V1040.52C2816.7 1040.58 2816.38 1040.66 2815.89 1040.66" fill="black"/>
<path d="M2821.2 1038.02L2819.76 1038.1C2819.22 1038.13 2818.6 1038.4 2818.6 1039.04C2818.6 1039.53 2818.9 1039.96 2819.65 1039.96C2820.06 1039.96 2820.47 1039.82 2820.76 1039.53C2821.09 1039.2 2821.22 1038.75 2821.22 1038.32V1037.99L2821.2 1038.02ZM2822.04 1040.66C2821.55 1040.66 2821.25 1040.31 2821.25 1039.85C2820.95 1040.39 2820.28 1040.71 2819.52 1040.71C2818.3 1040.71 2817.68 1039.91 2817.68 1039.07C2817.68 1038.4 2818.11 1037.48 2819.57 1037.4L2821.2 1037.29V1036.91C2821.2 1036.65 2821.17 1036.32 2820.93 1036.11C2820.74 1035.94 2820.49 1035.84 2820.06 1035.84C2819.57 1035.84 2819.27 1035.97 2819.08 1036.16C2818.92 1036.32 2818.81 1036.54 2818.81 1036.81H2817.92C2817.92 1036.32 2818.11 1035.97 2818.38 1035.7C2818.73 1035.33 2819.38 1035.14 2820.03 1035.14C2821.06 1035.14 2821.66 1035.57 2821.9 1036.16C2822.01 1036.4 2822.06 1036.67 2822.06 1036.97V1039.55C2822.06 1039.85 2822.17 1039.91 2822.36 1039.91C2822.44 1039.91 2822.6 1039.88 2822.6 1039.88V1040.55C2822.41 1040.63 2822.22 1040.69 2822.01 1040.69" fill="black"/>
<path d="M2826.83 1036.24C2826.61 1036.05 2826.34 1035.89 2825.96 1035.89C2824.77 1035.89 2824.44 1036.97 2824.44 1037.94C2824.44 1038.91 2824.77 1039.99 2825.96 1039.99C2826.34 1039.99 2826.61 1039.82 2826.83 1039.64C2827.26 1039.26 2827.42 1038.61 2827.42 1037.94C2827.42 1037.26 2827.29 1036.62 2826.83 1036.24ZM2827.48 1040.61L2827.42 1039.9C2827.12 1040.44 2826.42 1040.74 2825.82 1040.74C2825.18 1040.74 2824.66 1040.52 2824.31 1040.17C2823.79 1039.66 2823.55 1038.85 2823.55 1037.97C2823.55 1037.08 2823.82 1036.21 2824.36 1035.7C2824.71 1035.38 2825.2 1035.16 2825.82 1035.16C2826.42 1035.16 2827.1 1035.43 2827.37 1035.92V1033.04H2828.26V1040.63H2827.48V1040.61Z" fill="black"/>
<path d="M2831.84 1040.66C2830.67 1040.66 2830.37 1039.93 2830.37 1039.23V1036.05H2829.34V1035.27H2830.37V1033.92L2831.27 1033.71V1035.27H2832.86V1036.05H2831.27V1039.12C2831.27 1039.64 2831.48 1039.85 2832 1039.85C2832.38 1039.85 2832.92 1039.77 2832.92 1039.77V1040.52C2832.67 1040.58 2832.35 1040.66 2831.86 1040.66" fill="black"/>
</g>
<path d="M2835.81 1040.58V1039.64L2840.17 1034.01H2835.84V1033.12H2841.31V1034.06L2836.92 1039.72H2841.34V1040.58H2835.81Z" fill="black"/>
<mask id="mask6_1351_4092" style="mask-type:luminance" maskUnits="userSpaceOnUse" x="2744" y="1019" width="147" height="25">
<path d="M2890.5 1019H2744.5V1043.97H2890.5V1019Z" fill="white"/>
</mask>
<g mask="url(#mask6_1351_4092)">
<path d="M2845.21 1033.3H2846.18V1034.27H2845.21V1033.3ZM2843.34 1033.3H2844.31V1034.27H2843.34V1033.3ZM2846.1 1040.58L2846.02 1039.77C2845.75 1040.39 2845.05 1040.71 2844.42 1040.71C2843.2 1040.71 2842.58 1039.99 2842.58 1038.75V1035.24H2843.48V1038.61C2843.48 1039.42 2843.77 1039.88 2844.61 1039.88C2844.96 1039.88 2845.26 1039.72 2845.51 1039.47C2845.83 1039.12 2845.94 1038.56 2845.94 1037.99V1035.22H2846.83V1040.55H2846.05L2846.1 1040.58Z" fill="black"/>
<path d="M2851.16 1036.08C2850.73 1036.08 2850.38 1036.27 2850.13 1036.51C2849.7 1036.91 2849.65 1037.67 2849.65 1038.21V1040.58H2848.75V1035.24H2849.54L2849.62 1036.19C2849.89 1035.54 2850.54 1035.22 2851.22 1035.22C2851.35 1035.22 2851.52 1035.22 2851.65 1035.24V1036.11C2851.49 1036.08 2851.33 1036.05 2851.16 1036.05" fill="black"/>
</g>
<path d="M2852.73 1040.58H2853.65V1035.24H2852.73V1040.58ZM2852.68 1034.03H2853.74V1032.98H2852.68V1034.03Z" fill="black"/>
<mask id="mask7_1351_4092" style="mask-type:luminance" maskUnits="userSpaceOnUse" x="2744" y="1019" width="147" height="25">
<path d="M2890.5 1019H2744.5V1043.97H2890.5V1019Z" fill="white"/>
</mask>
<g mask="url(#mask7_1351_4092)">
<path d="M2859.04 1040.15C2858.66 1040.52 2858.15 1040.74 2857.5 1040.74C2856.52 1040.74 2855.93 1040.31 2855.55 1039.74C2855.28 1039.31 2855.12 1038.75 2855.12 1037.94C2855.12 1037.13 2855.28 1036.56 2855.55 1036.13C2855.93 1035.57 2856.52 1035.14 2857.5 1035.14C2858.12 1035.14 2858.66 1035.35 2859.01 1035.7C2859.37 1036.05 2859.61 1036.48 2859.66 1037.08H2858.74C2858.69 1036.7 2858.55 1036.46 2858.36 1036.24C2858.15 1036.05 2857.85 1035.92 2857.5 1035.92C2857.09 1035.92 2856.79 1036.08 2856.58 1036.27C2856.14 1036.62 2856.04 1037.29 2856.04 1037.94C2856.04 1038.58 2856.14 1039.26 2856.58 1039.61C2856.82 1039.8 2857.09 1039.96 2857.5 1039.96C2857.88 1039.96 2858.2 1039.82 2858.42 1039.61C2858.61 1039.42 2858.74 1039.18 2858.77 1038.83H2859.69C2859.64 1039.39 2859.42 1039.82 2859.07 1040.17" fill="black"/>
<path d="M2864.37 1040.58V1037.21C2864.37 1036.4 2864.05 1035.94 2863.21 1035.94C2862.7 1035.94 2862.29 1036.27 2862.05 1036.75C2861.86 1037.13 2861.86 1037.7 2861.86 1038.1V1040.58H2860.96V1032.98H2861.86V1035.97C2862.18 1035.43 2862.8 1035.14 2863.43 1035.14C2864.65 1035.14 2865.3 1035.86 2865.3 1037.1V1040.61H2864.4L2864.37 1040.58Z" fill="black"/>
</g>
</g>
<path d="M2924.13 1036V1026.12H2926.2L2926.35 1027.75C2926.8 1026.5 2927.98 1025.99 2929.14 1025.99C2929.39 1025.99 2929.64 1026.01 2929.88 1026.04V1028.32C2929.69 1028.27 2929.41 1028.23 2929.12 1028.23C2927.36 1028.23 2926.52 1029.37 2926.52 1031.21V1036H2924.13ZM2931.18 1026.12H2933.59V1036H2931.18V1026.12ZM2931.1 1022.26H2933.67V1024.71H2931.1V1022.26ZM2940.09 1036.27C2938.68 1036.27 2937.64 1035.79 2936.84 1035.05C2935.83 1034.1 2935.3 1032.67 2935.3 1031.06C2935.3 1029.48 2935.83 1028.06 2936.82 1027.11C2937.58 1026.37 2938.61 1025.85 2939.98 1025.85C2942.83 1025.85 2944.54 1027.85 2944.54 1030.79C2944.54 1031.17 2944.52 1031.52 2944.48 1031.74H2937.68C2937.68 1033.09 2938.55 1034.38 2940.05 1034.38C2941.14 1034.38 2941.88 1033.83 2942.05 1033.05H2944.27C2943.99 1034.99 2942.22 1036.27 2940.09 1036.27ZM2937.7 1030.01H2942.16C2942.16 1028.55 2941.31 1027.73 2940.03 1027.73C2938.74 1027.73 2937.79 1028.67 2937.7 1030.01ZM2950.03 1036.13C2948.04 1036.13 2946.9 1035.13 2946.9 1033.23V1028.08H2945.02V1026.12H2946.9V1023.61L2949.27 1023.02V1026.12H2951.67V1028.08H2949.27V1032.88C2949.27 1033.64 2949.77 1033.97 2950.53 1033.97C2951.02 1033.97 2951.38 1033.91 2951.68 1033.83V1035.89C2951.17 1036.08 2950.6 1036.13 2950.03 1036.13ZM2958.35 1036.27C2957.14 1036.27 2955.94 1035.73 2955.43 1034.59L2955.35 1036H2953.22V1022.24H2955.6V1027.07C2956.03 1026.48 2956.97 1025.85 2958.39 1025.85C2959.57 1025.85 2960.5 1026.23 2961.18 1026.88C2962.21 1027.85 2962.65 1029.37 2962.65 1031.08C2962.65 1032.67 2962.15 1034.33 2961.03 1035.28C2960.35 1035.87 2959.47 1036.27 2958.35 1036.27ZM2957.86 1034.25C2958.56 1034.25 2959.07 1033.99 2959.45 1033.57C2960.02 1032.94 2960.23 1031.99 2960.23 1031.04C2960.23 1030.09 2960.04 1029.25 2959.51 1028.59C2959.13 1028.11 2958.62 1027.83 2957.86 1027.83C2957.14 1027.83 2956.62 1028.1 2956.22 1028.55C2955.67 1029.2 2955.48 1030.05 2955.48 1031.04C2955.48 1032.07 2955.67 1032.98 2956.26 1033.59C2956.62 1033.97 2957.16 1034.25 2957.86 1034.25ZM2968.59 1036.27C2967.19 1036.27 2966.14 1035.79 2965.34 1035.05C2964.34 1034.1 2963.81 1032.67 2963.81 1031.06C2963.81 1029.48 2964.34 1028.06 2965.33 1027.11C2966.09 1026.37 2967.11 1025.85 2968.48 1025.85C2971.33 1025.85 2973.04 1027.85 2973.04 1030.79C2973.04 1031.17 2973.02 1031.52 2972.98 1031.74H2966.18C2966.18 1033.09 2967.05 1034.38 2968.56 1034.38C2969.64 1034.38 2970.38 1033.83 2970.55 1033.05H2972.77C2972.49 1034.99 2970.72 1036.27 2968.59 1036.27ZM2966.2 1030.01H2970.66C2970.66 1028.55 2969.81 1027.73 2968.54 1027.73C2967.24 1027.73 2966.29 1028.67 2966.2 1030.01ZM2974.71 1036V1026.12H2976.78L2976.93 1027.75C2977.39 1026.5 2978.57 1025.99 2979.73 1025.99C2979.97 1025.99 2980.22 1026.01 2980.47 1026.04V1028.32C2980.28 1028.27 2979.99 1028.23 2979.71 1028.23C2977.94 1028.23 2977.11 1029.37 2977.11 1031.21V1036H2974.71ZM2985.36 1040.37C2982.93 1040.37 2980.61 1039.84 2980.61 1037.6C2980.61 1036.7 2981.2 1035.98 2982.07 1035.62C2981.47 1035.3 2981.09 1034.63 2981.09 1033.99C2981.09 1033.21 2981.6 1032.5 2982.4 1032.12C2981.67 1031.5 2981.2 1030.62 2981.2 1029.52C2981.2 1027.32 2982.95 1025.85 2985.25 1025.85C2986.06 1025.85 2986.86 1026.08 2987.49 1026.46C2987.79 1025.45 2988.69 1024.96 2989.58 1024.96C2989.73 1024.96 2990.07 1024.96 2990.22 1025V1026.88C2990.17 1026.86 2990.05 1026.86 2990 1026.86C2989.43 1026.86 2988.8 1027.05 2988.72 1027.66C2989.08 1028.21 2989.27 1028.82 2989.27 1029.5C2989.27 1031.67 2987.49 1033.09 2985.25 1033.09C2984.68 1033.09 2984.13 1033 2983.61 1032.83C2983.35 1032.96 2983.12 1033.17 2983.12 1033.49C2983.12 1034.08 2983.63 1034.18 2984.13 1034.18H2985.8C2986.79 1034.18 2988.06 1034.19 2988.99 1034.84C2989.84 1035.43 2990.15 1036.23 2990.15 1037.18C2990.15 1039.44 2987.94 1040.37 2985.36 1040.37ZM2985.36 1038.57C2986.6 1038.57 2987.93 1038.38 2987.93 1037.24C2987.93 1036.1 2986.63 1036.06 2985.74 1036.06H2983.61C2983.1 1036.21 2982.72 1036.61 2982.72 1037.24C2982.72 1038.38 2984.14 1038.57 2985.36 1038.57ZM2985.25 1031.33C2986.33 1031.33 2986.99 1030.58 2986.99 1029.48C2986.99 1028.38 2986.33 1027.62 2985.25 1027.62C2984.16 1027.62 2983.5 1028.38 2983.5 1029.48C2983.5 1030.58 2984.16 1031.33 2985.25 1031.33ZM2990.93 1033.13H2993.8V1036H2990.93V1033.13ZM2999.56 1036.27C2997.93 1036.27 2996.71 1035.56 2996.03 1034.71C2995.27 1033.78 2994.89 1032.5 2994.89 1031.06C2994.89 1029.62 2995.27 1028.32 2996.05 1027.41C2996.75 1026.58 2997.93 1025.85 2999.56 1025.85C3001.98 1025.85 3003.72 1027.34 3003.84 1029.58H3001.54C3001.44 1028.51 3000.76 1027.91 2999.62 1027.91C2998.84 1027.91 2998.33 1028.19 2998 1028.55C2997.42 1029.2 2997.3 1030.13 2997.3 1031.06C2997.3 1031.99 2997.42 1032.92 2998 1033.55C2998.35 1033.91 2998.84 1034.21 2999.62 1034.21C3000.74 1034.21 3001.44 1033.57 3001.54 1032.56H3003.84C3003.72 1034.76 3001.9 1036.27 2999.56 1036.27ZM3005.44 1022.24H3007.82V1027.16C3008.39 1026.31 3009.55 1025.85 3010.57 1025.85C3012.74 1025.85 3013.97 1027.37 3013.97 1029.41V1036H3011.6V1029.84C3011.6 1028.7 3011.08 1028.04 3009.91 1028.04C3008.48 1028.04 3007.82 1029.5 3007.82 1030.76V1036H3005.44V1022.24Z" fill="black"/>
<path d="M2597.96 134.353L2598.87 134.017C2600 133.592 2600.35 133.222 2600.28 131.936C2600.1 129.312 2599.93 126.868 2599.69 124.289C2599.46 121.71 2599.22 119.222 2598.93 116.687C2598.8 115.416 2598.43 115.243 2597.24 115.441L2596.34 115.592L2596.23 114.646L2605.03 112.285C2610.01 110.947 2612.35 112.781 2613.05 115.416C2614.17 119.611 2610.8 123.098 2606.59 124.229C2605.46 124.532 2604.29 124.723 2602.98 124.803C2603.18 127.149 2603.41 129.699 2603.59 131.048C2603.7 132.263 2604.05 132.534 2605.2 132.316L2606.72 131.998L2606.81 132.886L2598.04 135.241L2597.95 134.353H2597.96ZM2605.39 123.032C2608.47 122.204 2610.29 119.711 2609.43 116.48C2608.9 114.497 2607.49 112.961 2604.12 113.865C2603.36 114.07 2602.85 114.234 2602.26 114.515C2602.35 116.649 2602.67 121.12 2602.84 123.352C2603.81 123.337 2604.57 123.252 2605.39 123.032H2605.39Z" fill="black"/>
<path d="M2618.58 130.184C2617.39 130.502 2616.38 129.801 2615.77 127.505C2614.15 121.44 2617.55 114.877 2620.83 113.996C2621.74 113.753 2622.57 113.925 2623.34 114.659L2623.33 113.024L2625.65 112.4L2626.46 123.027C2626.49 123.597 2626.55 124.035 2626.63 124.349C2626.74 124.774 2626.92 124.97 2627.14 124.91C2627.37 124.85 2627.63 124.596 2627.92 124.184L2629.23 122.404L2629.87 122.962L2627.61 126.183C2626.69 127.522 2625.99 128.195 2625.34 128.37C2624.77 128.522 2624.31 128.132 2624.08 127.282C2623.97 126.857 2623.9 126.387 2623.87 125.82L2623.78 124.235C2622 127.54 2620.39 129.701 2618.58 130.186V130.184ZM2620.29 127.053C2622.15 126.552 2624.2 121.841 2622.93 117.081C2622.5 115.465 2621.75 114.937 2620.73 115.211C2618.89 115.705 2617.05 119.936 2618.41 125.008C2618.9 126.85 2619.47 127.273 2620.29 127.055L2620.29 127.053Z" fill="black"/>
<path d="M2635.92 125.072L2633.12 125.824L2632.45 117.65C2632.31 116.684 2632.2 115.954 2632.05 115.387C2631.78 114.368 2631.42 113.918 2631.05 114.016C2630.79 114.085 2630.53 114.339 2630.26 114.713L2628.96 116.522C2628.73 116.342 2628.53 116.153 2628.32 115.963C2630.2 113.121 2631.8 110.838 2632.57 110.633C2633.19 110.466 2633.83 111.508 2634.33 113.38C2634.42 113.72 2634.52 114.087 2634.61 114.521C2635.8 112.196 2636.95 109.458 2638.59 109.018C2639.64 108.737 2640.3 109.287 2640.57 110.308C2640.89 111.499 2640.43 112.596 2639.27 112.906C2638.36 113.148 2637.87 112.309 2637.04 112.529C2635.88 112.841 2635.09 115.302 2635.62 121.478C2635.7 122.673 2635.81 123.888 2635.91 125.074L2635.92 125.072Z" fill="black"/>
<path d="M2644.37 101.024C2644.51 103.69 2644.72 107.645 2644.96 110.493L2645.1 112.035C2646.64 109.498 2649.12 106.189 2650.82 105.733C2652.15 105.377 2653.23 105.933 2653.56 107.153C2654 108.797 2652.97 111.412 2649.24 114.477C2651.39 117.757 2652.14 118.378 2652.67 118.233C2652.96 118.158 2653.29 117.917 2653.57 117.506L2654.86 115.734L2655.49 116.293L2652.9 119.994C2652.31 120.85 2651.93 121.227 2651.33 121.387C2650.54 121.6 2649.37 119.818 2646.49 115.641C2650.47 112.719 2651.34 110.42 2651.03 109.258C2650.85 108.577 2650.29 108.303 2649.67 108.47C2648.14 108.88 2645.63 111.619 2645.57 116.404C2645.54 118.327 2645.8 120.443 2645.93 122.384L2643.21 123.114L2641.69 105.083C2641.66 104.849 2641.64 104.642 2641.59 104.473C2641.36 103.594 2640.78 103.69 2639.08 104.146L2638.87 103.352C2640.66 102.809 2643.36 101.567 2644.2 100.977L2644.37 101.024H2644.37Z" fill="black"/>
<path d="M2656.47 111.808L2656.27 109.825L2662.07 108.268L2662.27 110.25L2656.47 111.806V111.808Z" fill="black"/>
<path d="M2663.88 99.0366C2663.35 98.0841 2663.09 97.8838 2662.14 97.984L2661.51 98.0953L2661.4 97.1494L2669.24 95.0464L2669.34 95.9922L2668.56 96.2615C2667.54 96.6264 2667.34 97.1361 2667.51 97.7592L2667.55 97.9283C2668.92 101.235 2671.45 106.176 2673.56 110.438C2674.96 105.326 2676.47 99.208 2677.12 95.7251C2677.2 95.3401 2677.21 95.033 2677.14 94.7793C2677.03 94.3832 2676.61 94.1628 2675.89 94.2942L2675.14 94.4344L2675.03 93.4885L2681.57 91.7349L2681.67 92.6807L2681.01 92.9188C2680.01 93.2771 2679.82 93.6933 2679.36 95.2444C2677.71 101.093 2675.59 109.045 2674.11 115.06L2672.44 115.507C2669.98 110.395 2666.45 103.779 2663.88 99.0344V99.0366Z" fill="black"/>
<path d="M2684.3 103.185L2684.07 100.512C2684.05 100.427 2684.06 100.363 2684.05 100.305C2683.96 99.9644 2683.75 99.8687 2683.55 99.9221C2683.35 99.9755 2683.08 100.2 2682.79 100.612L2681.49 102.421L2680.85 101.863L2683.45 98.1885C2684.17 97.1447 2684.84 96.5995 2685.4 96.4192C2685.99 96.259 2686.43 96.6306 2686.68 97.5653C2686.77 97.9348 2686.83 98.4667 2686.88 98.9985L2687.28 105.027C2687.35 106.1 2687.37 107.402 2687.56 108.018C2687.68 108.443 2687.84 108.613 2688.07 108.55C2688.27 108.497 2688.54 108.272 2688.82 107.86L2690.16 106.044C2690.36 106.234 2690.56 106.423 2690.79 106.603C2688.77 109.483 2687.37 111.713 2686.24 112.018C2685.67 112.169 2685.2 111.779 2684.98 110.929C2684.87 110.533 2684.8 110.035 2684.77 109.467L2684.3 103.185V103.185ZM2686.32 91.679C2686.58 92.6715 2686.03 93.762 2685.06 94.0202C2684.16 94.2627 2683.5 93.8622 2683.28 93.012C2683 91.9928 2683.48 90.9223 2684.52 90.6419C2685.4 90.406 2686.09 90.8288 2686.32 91.679V91.679Z" fill="black"/>
<path d="M2695.56 105.842C2695.68 106.296 2695.87 106.427 2696.1 106.367C2696.58 106.238 2697.55 104.762 2698.16 103.899C2698.4 104.079 2698.6 104.268 2698.8 104.458L2696.98 107.073C2695.91 108.728 2695.04 109.661 2694.27 109.865C2693.68 110.026 2693.21 109.634 2692.98 108.784C2692.87 108.359 2692.79 107.713 2692.75 107.115L2691.48 91.7212C2691.45 91.4875 2691.43 91.2806 2691.38 91.1114C2691.15 90.2324 2690.57 90.3281 2688.87 90.7843L2688.66 89.9898C2690.45 89.4468 2693.15 88.205 2693.99 87.6152L2694.16 87.662C2694.29 90.6352 2694.59 95.1707 2694.89 98.5534L2695.39 104.522C2695.45 105.083 2695.48 105.53 2695.56 105.844L2695.56 105.842Z" fill="black"/>
<path d="M2703.48 103.714C2703.6 104.168 2703.79 104.3 2704.02 104.24C2704.5 104.111 2705.47 102.635 2706.09 101.772C2706.32 101.952 2706.52 102.141 2706.72 102.33L2704.9 104.945C2703.83 106.601 2702.96 107.533 2702.19 107.738C2701.6 107.898 2701.13 107.507 2700.9 106.656C2700.79 106.231 2700.71 105.586 2700.67 104.987L2699.4 89.5938C2699.37 89.3601 2699.34 89.1531 2699.3 88.984C2699.06 88.1049 2698.48 88.2006 2696.79 88.6569L2696.57 87.8624C2698.37 87.3194 2701.07 86.0775 2701.91 85.4878L2702.08 85.5345C2702.2 88.5078 2702.51 93.0433 2702.81 96.426L2703.31 102.395C2703.37 102.955 2703.4 103.403 2703.48 103.717V103.714Z" fill="black"/>
<path d="M2710.54 105.497C2709.35 105.815 2708.34 105.114 2707.73 102.818C2706.11 96.7532 2709.51 90.1903 2712.79 89.309C2713.69 89.0665 2714.53 89.2378 2715.3 89.9722L2715.29 88.3365L2717.6 87.7134L2718.42 98.34C2718.45 98.9097 2718.5 99.3481 2718.59 99.6619C2718.7 100.087 2718.87 100.283 2719.1 100.223C2719.33 100.163 2719.59 99.9089 2719.88 99.4972L2721.19 97.7169L2721.82 98.2755L2719.56 101.496C2718.65 102.835 2717.95 103.508 2717.3 103.683C2716.73 103.835 2716.26 103.445 2716.04 102.595C2715.92 102.17 2715.86 101.7 2715.83 101.133L2715.74 99.5484C2713.95 102.853 2712.35 105.014 2710.54 105.499V105.497ZM2712.24 102.366C2714.11 101.865 2716.16 97.1538 2714.88 92.3935C2714.45 90.7778 2713.7 90.2504 2712.69 90.5241C2710.85 91.0182 2709.01 95.2488 2710.37 100.321C2710.86 102.163 2711.43 102.586 2712.25 102.368L2712.24 102.366Z" fill="black"/>
<path d="M2630.49 153.961L2631.4 153.625C2632.53 153.2 2632.88 152.83 2632.81 151.544C2632.63 148.92 2632.44 146.419 2632.21 143.84C2631.97 141.26 2631.75 138.83 2631.46 136.293C2631.33 135.022 2630.96 134.849 2629.76 135.047L2628.86 135.198L2628.76 134.252L2637.28 131.967C2642.25 130.629 2644.74 132.332 2645.39 134.769C2646.3 138.169 2643.98 140.492 2640.87 141.906C2641.94 142.137 2642.71 142.749 2643.5 143.57C2644.9 144.928 2646 146.452 2647.32 147.861C2648.16 148.729 2648.65 148.871 2649.39 148.793L2650 148.72L2650.12 149.601L2645.08 150.952C2643.56 148.9 2642.06 146.904 2640.23 144.934C2638.98 143.568 2638.17 143.119 2637.27 143.297C2636.84 143.381 2636.15 143.537 2635.43 143.641C2635.68 146.156 2635.93 149.276 2636.12 150.654C2636.23 151.869 2636.58 152.141 2637.73 151.922L2638.72 151.749L2638.83 152.63L2630.57 154.847L2630.48 153.959L2630.49 153.961ZM2637.75 141.803C2640.53 141.06 2642.72 139.164 2641.85 135.935C2641.28 133.78 2639.7 132.654 2636.39 133.542C2635.63 133.747 2635.38 133.845 2634.79 134.125C2634.87 136.11 2635.15 140.012 2635.33 142.273C2636.21 142.159 2636.99 142.01 2637.75 141.805V141.803Z" fill="black"/>
<path d="M2652 140.196L2651.77 137.524C2651.75 137.439 2651.76 137.374 2651.75 137.317C2651.65 136.976 2651.45 136.88 2651.25 136.934C2651.05 136.987 2650.78 137.212 2650.49 137.624L2649.19 139.433L2648.55 138.874L2651.15 135.2C2651.87 134.156 2652.54 133.611 2653.1 133.431C2653.69 133.271 2654.12 133.642 2654.38 134.577C2654.47 134.946 2654.53 135.478 2654.58 136.01L2654.98 142.039C2655.05 143.112 2655.07 144.414 2655.26 145.03C2655.38 145.455 2655.54 145.624 2655.77 145.562C2655.97 145.509 2656.24 145.284 2656.52 144.872L2657.86 143.056C2658.06 143.245 2658.26 143.434 2658.49 143.615C2656.47 146.494 2655.07 148.724 2653.94 149.029C2653.37 149.181 2652.9 148.791 2652.67 147.941C2652.57 147.545 2652.5 147.046 2652.47 146.479L2652 140.196H2652ZM2654.02 128.691C2654.28 129.683 2653.72 130.774 2652.76 131.032C2651.86 131.274 2651.2 130.874 2650.98 130.024C2650.7 129.004 2651.18 127.934 2652.22 127.654C2653.1 127.418 2653.79 127.841 2654.02 128.691V128.691Z" fill="black"/>
<path d="M2661.96 140.497C2662.58 142.794 2663.54 143.66 2664.64 143.364C2665.69 143.083 2667.13 141.692 2668.26 139.567L2669.14 140.001C2667 143.795 2665.34 146.001 2663.65 146.457C2662.12 146.867 2660.24 146.065 2659.34 142.694C2657.97 137.593 2660.74 131.411 2664.99 130.271C2666.94 129.748 2667.98 130.592 2668.37 132.036C2668.85 133.821 2667.72 136.523 2661.83 139.896C2661.85 140.074 2661.91 140.301 2661.96 140.499V140.497ZM2665.73 132.926C2665.48 131.991 2665 131.573 2664.18 131.791C2662.63 132.21 2661.28 135.457 2661.68 138.993C2665.3 137.11 2666.17 134.598 2665.73 132.924V132.926Z" fill="black"/>
<path d="M2670.07 130.91L2669.83 130.031C2671.39 129.372 2673.39 126.768 2673.85 124.304L2674.6 124.135L2674.88 128.159L2677.94 127.338L2678.27 128.706L2675.02 129.579L2675.73 138.015C2675.76 138.585 2675.8 139.061 2675.92 139.393C2676.04 139.847 2676.25 140.063 2676.56 139.981C2676.79 139.921 2677.11 139.651 2677.48 139.126L2678.7 137.432L2679.33 137.991L2676.54 141.93C2675.92 142.794 2675.26 143.277 2674.75 143.412C2674.02 143.61 2673.67 143.216 2673.36 142.084C2673.27 141.743 2673.16 141.318 2673.12 140.722L2672.22 130.331L2670.07 130.907L2670.07 130.91Z" fill="black"/>
<path d="M2683.52 134.711C2684.13 137.007 2685.09 137.873 2686.19 137.577C2687.24 137.297 2688.69 135.906 2689.81 133.78L2690.69 134.214C2688.55 138.009 2686.9 140.214 2685.2 140.67C2683.67 141.08 2681.79 140.279 2680.89 136.907C2679.52 131.806 2682.3 125.624 2686.54 124.485C2688.49 123.962 2689.53 124.805 2689.92 126.249C2690.4 128.034 2689.27 130.736 2683.38 134.11C2683.4 134.288 2683.46 134.515 2683.52 134.713V134.711ZM2687.28 127.14C2687.03 126.205 2686.55 125.786 2685.73 126.005C2684.18 126.423 2682.83 129.67 2683.23 133.206C2686.85 131.323 2687.73 128.811 2687.28 127.137V127.14Z" fill="black"/>
<path d="M2698.23 136.685L2695.43 137.437L2694.76 129.263C2694.62 128.297 2694.52 127.567 2694.37 127C2694.09 125.98 2693.73 125.531 2693.36 125.629C2693.11 125.698 2692.84 125.951 2692.58 126.325L2691.27 128.132C2691.04 127.952 2690.84 127.763 2690.64 127.574C2692.51 124.732 2694.12 122.448 2694.88 122.244C2695.5 122.077 2696.15 123.118 2696.65 124.99C2696.74 125.33 2696.84 125.698 2696.92 126.132C2698.12 123.806 2699.27 121.066 2700.91 120.628C2701.95 120.348 2702.62 120.897 2702.89 121.919C2703.21 123.109 2702.74 124.207 2701.58 124.518C2700.68 124.761 2700.18 123.922 2699.36 124.142C2698.2 124.454 2697.4 126.915 2697.93 133.091C2698.01 134.286 2698.12 135.501 2698.23 136.687L2698.23 136.685Z" fill="black"/>
<defs>
<clipPath id="clip0_1351_4092">
<rect width="146" height="25" fill="white" transform="translate(2744.5 1019)"/>
</clipPath>
</defs>
</svg>
