<svg width="5760" height="1080" viewBox="0 0 5760 1080" fill="none" xmlns="http://www.w3.org/2000/svg">
<path fill-rule="evenodd" clip-rule="evenodd" d="M2803.09 36.3818H2800V47.4102H2803.09V41.1238C2803.09 40.365 2803.09 39.4709 2803.81 38.9831C2804.06 38.8122 2804.35 38.7182 2804.66 38.7121C2804.89 38.7057 2805.12 38.7537 2805.33 38.8523C2805.55 38.9509 2805.73 39.0976 2805.88 39.2812C2806.12 39.7639 2806.23 40.3056 2806.19 40.846V47.3831H2809.32V41.4218C2809.32 40.216 2809.32 39.5792 2809.91 39.0915C2810.19 38.8576 2810.54 38.7243 2810.9 38.7121C2811.21 38.702 2811.51 38.7965 2811.75 38.9807C2812 39.1649 2812.18 39.4281 2812.26 39.7283C2812.37 40.3496 2812.41 40.9812 2812.38 41.6115V47.4102H2815.48V40.216C2815.55 39.3583 2815.45 38.4941 2815.19 37.6757C2814.9 37.1515 2814.46 36.7239 2813.93 36.4431C2813.41 36.1624 2812.82 36.04 2812.22 36.0905C2811.64 36.0775 2811.06 36.1827 2810.52 36.4002C2809.98 36.6177 2809.48 36.9431 2809.06 37.3573C2808.71 36.9187 2808.25 36.5744 2807.74 36.3538C2807.22 36.1332 2806.66 36.0428 2806.11 36.0905C2805.53 36.0659 2804.95 36.1835 2804.43 36.4335C2803.9 36.6834 2803.45 37.0584 2803.09 37.5267V36.3818Z" fill="black"/>
<path fill-rule="evenodd" clip-rule="evenodd" d="M2824.77 43.2371C2824.81 43.541 2824.76 43.8508 2824.64 44.1295C2824.51 44.4082 2824.31 44.644 2824.05 44.8087C2823.73 45 2823.35 45.0961 2822.98 45.0865C2822.74 45.098 2822.51 45.0545 2822.29 44.9594C2822.08 44.8642 2821.88 44.72 2821.73 44.5378C2821.52 44.1356 2821.43 43.677 2821.49 43.2236V36.3613H2818.33V43.3049C2818.33 45.1068 2818.43 45.7639 2819 46.5633C2819.32 46.9637 2819.74 47.2784 2820.21 47.4812C2820.68 47.6839 2821.2 47.7687 2821.71 47.7284C2822.4 47.725 2823.09 47.5507 2823.7 47.2204C2824.12 47.0211 2824.48 46.7238 2824.76 46.3533V47.41H2827.9V36.3613H2824.77V43.2371Z" fill="black"/>
<path fill-rule="evenodd" clip-rule="evenodd" d="M2829.43 45.5473C2830.1 46.2478 2830.91 46.7991 2831.8 47.1664C2832.69 47.5337 2833.64 47.709 2834.6 47.6811C2837.11 47.6811 2839.63 46.4144 2839.63 43.8063C2839.63 41.1982 2837.13 40.5953 2834.99 40.1889C2833.98 39.9992 2833.27 39.8773 2833.27 39.2405C2833.27 38.9221 2833.56 38.4141 2834.78 38.4141C2835.77 38.4683 2836.7 38.8571 2837.44 39.5182L2839.38 37.6553C2838.03 36.5879 2836.38 36.0065 2834.67 36.0024C2831.69 36.0024 2830.18 37.8857 2830.18 39.7079C2830.18 40.4765 2830.46 41.2182 2830.98 41.7808C2831.48 42.2472 2832.09 42.5759 2832.75 42.736C2833.21 42.8792 2833.69 42.9924 2834.17 43.0747C2834.79 43.1295 2835.4 43.2731 2835.99 43.5015C2836.11 43.5542 2836.21 43.643 2836.28 43.7565C2836.36 43.87 2836.39 44.003 2836.39 44.1382C2836.39 44.9647 2835.25 45.2153 2834.5 45.2153C2833.31 45.1436 2832.19 44.5956 2831.4 43.6911L2829.43 45.5473Z" fill="black"/>
<path d="M2846.5 45.2898C2844.81 45.2898 2844.06 43.9349 2844.08 42.5395H2851.68C2851.64 41.293 2851.56 39.1524 2850.17 37.5875C2849.67 37.0664 2849.08 36.6562 2848.42 36.3833C2847.76 36.1103 2847.05 35.9805 2846.34 36.0024C2842.15 36.0024 2840.88 39.4301 2840.88 42.0991C2840.88 45.7165 2843.1 47.8098 2846.26 47.8098C2847.74 47.8277 2849.17 47.2676 2850.25 46.2449C2850.75 45.75 2851.18 45.1948 2851.54 44.592L2849.17 43.3456C2848.8 44.1314 2848.21 45.2898 2846.5 45.2898V45.2898ZM2844.73 39.0507C2844.93 38.8245 2845.18 38.6437 2845.45 38.52C2845.72 38.3963 2846.02 38.3325 2846.32 38.3327C2846.89 38.327 2847.44 38.5482 2847.85 38.9491C2848.21 39.3939 2848.41 39.9417 2848.44 40.514H2844.1C2844.17 39.9759 2844.39 39.4691 2844.73 39.0507V39.0507Z" fill="black"/>
<path fill-rule="evenodd" clip-rule="evenodd" d="M2859.98 43.2371C2860.02 43.541 2859.98 43.8508 2859.85 44.1295C2859.73 44.4082 2859.52 44.644 2859.27 44.8087C2858.94 44.9997 2858.57 45.0958 2858.19 45.0865C2857.96 45.098 2857.72 45.0545 2857.51 44.9594C2857.29 44.8642 2857.1 44.72 2856.95 44.5378C2856.73 44.1359 2856.65 43.677 2856.7 43.2236V36.3613H2853.55V43.3049C2853.55 45.1068 2853.65 45.7639 2854.21 46.5633C2854.54 46.9637 2854.96 47.2784 2855.43 47.4812C2855.9 47.6839 2856.41 47.7687 2856.92 47.7284C2857.62 47.7247 2858.3 47.5505 2858.92 47.2204C2859.33 47.0213 2859.69 46.724 2859.97 46.3533V47.41H2863.11V36.3613H2859.98V43.2371Z" fill="black"/>
<path fill-rule="evenodd" clip-rule="evenodd" d="M2869.15 36.3818H2866.06V47.4102H2869.15V41.1238C2869.15 40.365 2869.15 39.4709 2869.86 38.9831C2870.12 38.8107 2870.41 38.7166 2870.72 38.7121C2870.95 38.7057 2871.18 38.7537 2871.4 38.8523C2871.61 38.9509 2871.8 39.0976 2871.94 39.2812C2872.19 39.7636 2872.29 40.3056 2872.25 40.846V47.3831H2875.34V41.4218C2875.34 40.216 2875.34 39.5792 2875.94 39.0915C2876.23 38.866 2876.59 38.7468 2876.96 38.7528C2877.26 38.7414 2877.56 38.833 2877.8 39.0133C2878.05 39.1935 2878.23 39.4522 2878.32 39.7486C2878.43 40.37 2878.47 41.0015 2878.44 41.6318V47.4305H2881.53V40.216C2881.61 39.3583 2881.51 38.4941 2881.25 37.6757C2880.95 37.1504 2880.51 36.7221 2879.99 36.4412C2879.46 36.1604 2878.87 36.0387 2878.27 36.0905C2877.69 36.0787 2877.11 36.1846 2876.57 36.4021C2876.03 36.6195 2875.54 36.9442 2875.12 37.3573C2874.76 36.9187 2874.31 36.5744 2873.79 36.3538C2873.28 36.1332 2872.72 36.0428 2872.16 36.0905C2871.59 36.0659 2871.01 36.1835 2870.48 36.4335C2869.96 36.6834 2869.5 37.0584 2869.15 37.5267V36.3818Z" fill="black"/>
<path fill-rule="evenodd" clip-rule="evenodd" d="M2887.56 45.9923H2884.51V57.0546H2887.64V50.8359C2887.64 49.4404 2888.09 49.2033 2889.6 48.9323L2890.64 48.763V45.8839C2889.5 45.9295 2888.41 46.3802 2887.56 47.1575V45.9923ZM2892.37 44.6375H2895.46V42.0972H2892.37L2892.37 44.6375ZM2892.37 57.0817H2895.46V45.9923H2892.37L2892.37 57.0817ZM2905.99 53.0172C2905.61 53.7962 2905.02 54.9614 2903.33 54.9614C2901.65 54.9614 2900.89 53.6065 2900.91 52.211H2908.46C2908.42 50.9646 2908.34 48.8239 2906.96 47.2591C2906.47 46.7352 2905.87 46.3217 2905.22 46.0452C2904.56 45.7687 2903.85 45.6353 2903.14 45.6536C2898.95 45.6536 2897.68 49.0814 2897.68 51.7504C2897.68 55.3678 2899.91 57.461 2903.06 57.461C2904.54 57.4782 2905.97 56.9182 2907.05 55.8962C2907.55 55.4008 2907.98 54.8457 2908.34 54.2433L2905.99 53.0172ZM2900.9 50.1585C2900.98 49.6204 2901.2 49.1138 2901.54 48.6952C2901.74 48.4673 2901.99 48.2855 2902.26 48.1617C2902.54 48.038 2902.84 47.9751 2903.14 47.9772C2903.71 47.9722 2904.26 48.1933 2904.67 48.5936C2905.03 49.0367 2905.24 49.5855 2905.26 50.1585H2900.9ZM2910.83 46.243H2909.27V48.2346H2910.83V53.5659C2910.73 54.4257 2910.88 55.2962 2911.27 56.0655C2911.94 57.0817 2913.13 57.1426 2914.21 57.1426C2914.76 57.1426 2915.31 57.095 2915.86 57.0004V54.433L2914.74 54.4736C2913.9 54.4736 2913.9 53.9046 2913.92 53.2272V48.2549H2916V46.2633H2913.94V42.8152H2910.83V46.243ZM2917.78 42.0972V57.0546H2920.79L2920.67 55.8894C2921.05 56.3623 2921.52 56.7403 2922.06 56.9932C2922.6 57.246 2923.19 57.3668 2923.79 57.3459C2924.63 57.3542 2925.47 57.1079 2926.18 56.638C2926.89 56.168 2927.44 55.4953 2927.78 54.7039C2928.24 53.636 2928.46 52.4812 2928.45 51.3168C2928.45 46.9136 2925.64 45.6875 2923.92 45.6875C2923.34 45.6587 2922.77 45.766 2922.24 46.001C2921.71 46.236 2921.24 46.5923 2920.87 47.0423V42.0972H2917.78ZM2923.1 48.0652C2924.87 47.9568 2925.4 49.6504 2925.4 51.4049C2925.43 52.3528 2925.2 53.2895 2924.74 54.1146C2924.55 54.3761 2924.3 54.5892 2924.02 54.7374C2923.74 54.8855 2923.42 54.9645 2923.1 54.9681C2922.73 54.9706 2922.37 54.8767 2922.04 54.6953C2921.72 54.5139 2921.44 54.2511 2921.25 53.9317C2920.89 53.1584 2920.72 52.3112 2920.75 51.4591C2920.79 50.7749 2920.81 48.1939 2923.1 48.0652ZM2938.25 52.9968C2937.87 53.7759 2937.28 54.941 2935.59 54.941C2933.91 54.941 2933.15 53.5862 2933.17 52.1907H2940.72C2940.68 50.9443 2940.6 48.8036 2939.22 47.2388C2938.72 46.7177 2938.13 46.3075 2937.47 46.0345C2936.81 45.7615 2936.1 45.6318 2935.39 45.6536C2931.19 45.6536 2929.94 49.0814 2929.94 51.7504C2929.94 55.3678 2932.16 57.461 2935.31 57.461C2936.79 57.4789 2938.22 56.9188 2939.31 55.8962C2939.8 55.4011 2940.23 54.8459 2940.59 54.2433L2938.25 52.9968ZM2933.15 50.1585C2933.21 49.6237 2933.42 49.1172 2933.75 48.6952C2933.95 48.469 2934.2 48.2882 2934.47 48.1645C2934.74 48.0408 2935.04 47.977 2935.34 47.9772C2935.91 47.9732 2936.45 48.1943 2936.86 48.5936C2937.22 49.0364 2937.43 49.5854 2937.46 50.1585H2933.15ZM2945.73 45.9923H2942.64V57.0546H2945.77V50.8359C2945.77 49.4404 2946.22 49.2033 2947.73 48.9323L2948.77 48.763V45.8839C2947.64 45.9373 2946.56 46.3874 2945.73 47.1575V45.9923ZM2956.95 56.7836C2956.95 57.6913 2956.95 58.8565 2955.06 58.8565C2954.71 58.8701 2954.37 58.798 2954.06 58.6465C2953.77 58.5062 2953.52 58.2801 2953.36 57.9975C2953.2 57.7149 2953.12 57.3888 2953.14 57.0613H2949.87C2949.82 57.5255 2949.87 57.9936 2950.01 58.4372C2950.16 58.8808 2950.38 59.2908 2950.68 59.6423C2951.26 60.2588 2952.64 60.9972 2954.76 60.9972C2956.01 61.0324 2957.25 60.7483 2958.37 60.1707C2959.92 59.2426 2959.96 57.8201 2960 56.6143V45.9923H2957.07V47.0288C2956.7 46.6283 2956.26 46.313 2955.77 46.1047C2955.28 45.8964 2954.74 45.8003 2954.21 45.823C2950.69 45.823 2949.69 49.0204 2949.69 51.2423C2949.69 53.1459 2950.24 54.8597 2951.69 55.8149C2952.41 56.2982 2953.25 56.5486 2954.11 56.533C2955.12 56.5559 2956.11 56.2261 2956.92 55.5981L2956.95 56.7836ZM2954.8 48.2549C2955.13 48.2217 2955.46 48.2789 2955.76 48.4206C2956.06 48.5624 2956.32 48.7835 2956.51 49.061C2956.8 49.738 2956.93 50.4762 2956.89 51.2152C2956.89 52.7801 2956.53 54.0739 2954.94 54.0739C2953 54.0739 2952.94 52.1501 2952.94 51.2152C2952.95 49.6504 2953.31 48.3159 2954.8 48.2549Z" fill="black"/>
<path d="M2810.92 167.64C2810.77 173.04 2810.65 179.7 2810.65 183.24C2810.65 184.47 2811.01 184.83 2812.21 184.92L2813.26 185.01V186H2806.09V185.01L2807.05 184.92C2808.28 184.8 2808.67 184.53 2808.7 183.24C2808.88 177.99 2809.09 173.19 2809.09 168C2809.09 166.71 2808.67 166.44 2807.44 166.32L2806.48 166.23V165.18H2814.58C2816.38 169.8 2818.27 174.33 2820.13 178.98C2822.08 174.36 2823.91 169.8 2825.65 165.18H2833.33V166.23L2832.28 166.32C2831.08 166.41 2830.75 166.77 2830.72 168C2830.66 170.85 2830.87 181.2 2830.96 183.24C2831.02 184.47 2831.32 184.83 2832.52 184.92L2833.57 185.01V186H2824.15V185.01L2825.11 184.92C2826.34 184.8 2826.76 184.53 2826.76 183.24C2826.76 179.82 2826.64 172.8 2826.46 167.64C2824.03 173.64 2821.6 179.76 2819.29 185.82H2818.36C2815.96 179.7 2813.5 173.73 2810.92 167.64ZM2840.96 175.62C2840.96 178.23 2840.96 181.8 2841.02 183.24C2841.05 184.47 2841.38 184.83 2842.58 184.92L2843.63 185.01V186H2834.21V185.01L2835.17 184.92C2836.4 184.8 2836.79 184.53 2836.82 183.24C2836.88 180.6 2836.91 178.17 2836.91 175.56C2836.91 172.95 2836.88 170.58 2836.82 168C2836.79 166.71 2836.4 166.44 2835.17 166.32L2834.21 166.23V165.18H2843.75V166.23L2842.7 166.32C2841.5 166.41 2841.2 166.77 2841.14 168C2841.05 170.16 2840.96 173.49 2840.96 175.62ZM2855.85 166.83C2855.79 169.2 2855.7 173.67 2855.7 175.62C2855.7 178.23 2855.7 181.8 2855.76 183.24C2855.79 184.47 2856.12 184.83 2857.32 184.92L2858.37 185.01V186H2848.95V185.01L2849.91 184.92C2851.14 184.8 2851.53 184.53 2851.56 183.24C2851.62 180.6 2851.65 178.17 2851.65 175.56C2851.65 173.1 2851.62 169.44 2851.56 166.83L2849.49 166.89C2846.19 167.1 2845.47 167.67 2845.26 171.15H2844.15V165.18H2863.32V171.15H2862.24C2862.06 167.79 2861.19 167.1 2857.98 166.89C2857.26 166.86 2856.54 166.83 2855.85 166.83ZM2876.27 182.76C2876.3 183.9 2877.56 184.26 2880.86 184.26C2884.01 184.26 2885.69 183.42 2885.99 179.07H2887.04V186H2869.46V185.01L2870.42 184.92C2871.65 184.8 2872.04 184.53 2872.07 183.24C2872.13 180.6 2872.16 178.17 2872.16 175.56C2872.16 172.95 2872.13 170.58 2872.07 168C2872.04 166.71 2871.65 166.44 2870.42 166.32L2869.46 166.23V165.18H2879.09V166.23L2877.95 166.32C2876.75 166.41 2876.45 166.77 2876.39 168C2876.3 170.16 2876.21 173.49 2876.21 175.62C2876.21 178.23 2876.21 181.11 2876.27 182.76ZM2894.16 175.62C2894.16 178.23 2894.16 181.8 2894.22 183.24C2894.25 184.47 2894.58 184.83 2895.78 184.92L2896.83 185.01V186H2887.41V185.01L2888.37 184.92C2889.6 184.8 2889.99 184.53 2890.02 183.24C2890.08 180.6 2890.11 178.17 2890.11 175.56C2890.11 172.95 2890.08 170.58 2890.02 168C2889.99 166.71 2889.6 166.44 2888.37 166.32L2887.41 166.23V165.18H2896.95V166.23L2895.9 166.32C2894.7 166.41 2894.4 166.77 2894.34 168C2894.25 170.16 2894.16 173.49 2894.16 175.62ZM2904.4 174.3H2906.62C2908.66 174.3 2909.29 174 2909.41 171.54H2910.52V178.47H2909.41C2909.29 176.25 2908.72 175.71 2906.68 175.71H2904.4C2904.4 178.23 2904.4 181.32 2904.46 182.85C2904.49 183.99 2905.33 184.38 2908.72 184.38C2911.78 184.38 2912.8 183.54 2912.98 180.15H2914V186H2897.65V185.01L2898.61 184.92C2899.84 184.8 2900.23 184.53 2900.26 183.24C2900.32 180.6 2900.35 178.17 2900.35 175.56C2900.35 172.95 2900.32 170.52 2900.26 167.94C2900.23 166.65 2899.84 166.38 2898.61 166.32L2897.65 166.23V165.18H2914V171.24H2912.98C2912.8 167.79 2911.84 166.77 2908.63 166.77C2907.1 166.77 2905.78 166.77 2904.58 166.83C2904.49 168.63 2904.43 172.05 2904.4 174.3ZM2926.51 186H2916.16V185.01L2917.12 184.92C2918.35 184.8 2918.74 184.53 2918.77 183.24C2918.83 180.6 2918.86 178.17 2918.86 175.56C2918.86 172.95 2918.83 170.58 2918.77 168C2918.74 166.71 2918.35 166.44 2917.12 166.32L2916.16 166.23V165.18H2926.03C2932 165.18 2933.68 167.67 2933.68 170.13C2933.68 172.41 2931.64 174.12 2929.18 174.6C2932.3 174.96 2934.73 177.36 2934.73 180.09C2934.73 183.03 2932.78 186 2926.51 186ZM2922.97 182.76C2923.03 184.2 2923.54 184.74 2925.73 184.74C2928.79 184.74 2930.23 183.03 2930.23 180.36C2930.23 177.78 2929.48 175.56 2924.8 175.56C2924.05 175.56 2923.27 175.56 2922.91 175.59C2922.91 177.66 2922.91 181.35 2922.97 182.76ZM2922.91 174.06C2923.57 174.21 2924.65 174.27 2925.22 174.27C2928.07 174.27 2929.48 172.41 2929.48 170.46C2929.48 168.36 2928.37 166.62 2924.98 166.62C2924.53 166.62 2923.6 166.68 2923.09 166.77C2923 168.6 2922.94 171.84 2922.91 174.06ZM2942.79 174.3H2945.01C2947.05 174.3 2947.68 174 2947.8 171.54H2948.91V178.47H2947.8C2947.68 176.25 2947.11 175.71 2945.07 175.71H2942.79C2942.79 178.23 2942.79 181.32 2942.85 182.85C2942.88 183.99 2943.72 184.38 2947.11 184.38C2950.17 184.38 2951.19 183.54 2951.37 180.15H2952.39V186H2936.04V185.01L2937 184.92C2938.23 184.8 2938.62 184.53 2938.65 183.24C2938.71 180.6 2938.74 178.17 2938.74 175.56C2938.74 172.95 2938.71 170.52 2938.65 167.94C2938.62 166.65 2938.23 166.38 2937 166.32L2936.04 166.23V165.18H2952.39V171.24H2951.37C2951.19 167.79 2950.23 166.77 2947.02 166.77C2945.49 166.77 2944.17 166.77 2942.97 166.83C2942.88 168.63 2942.82 172.05 2942.79 174.3ZM2859.09 200.78C2857.23 200.69 2853.66 200.69 2851.38 200.69C2848.86 200.69 2848.35 201.29 2848.11 203.93H2846.91L2847.24 197.18H2863.83V198.56C2859.36 203.81 2854.98 209.33 2850.96 214.4C2853.03 214.46 2857.41 214.49 2858.46 214.49C2862.18 214.49 2862.66 213.92 2862.93 210.92H2864.13L2863.74 218H2845.92V216.62C2850.51 211.34 2854.83 206.09 2859.09 200.78ZM2884.17 212.03C2884.17 216.44 2880.12 218.51 2876.13 218.51C2871.96 218.51 2867.76 216.29 2867.76 212.03C2867.76 210.53 2867.79 209.27 2867.79 207.62C2867.79 205.01 2867.76 202.58 2867.7 200C2867.67 198.71 2867.28 198.44 2866.05 198.32L2865.09 198.23V197.18H2874.66V198.23L2873.61 198.32C2872.41 198.41 2872.11 198.77 2872.05 200C2871.96 202.19 2871.84 205.31 2871.84 209.18V210.98C2871.84 214.76 2874.45 216.29 2877.18 216.29C2879.67 216.29 2882.34 214.88 2882.34 211.4V207.95C2882.34 204.77 2882.34 202.58 2882.28 200C2882.25 198.71 2881.86 198.44 2880.63 198.32L2879.67 198.23V197.18H2886.96V198.23L2885.91 198.32C2884.71 198.41 2884.41 198.77 2884.35 200C2884.26 202.19 2884.17 205.55 2884.17 207.68V212.03ZM2891.82 199.64C2891.67 205.04 2891.55 211.7 2891.55 215.24C2891.55 216.47 2891.91 216.83 2893.11 216.92L2894.16 217.01V218H2886.99V217.01L2887.95 216.92C2889.18 216.8 2889.57 216.53 2889.6 215.24C2889.78 209.99 2889.99 205.19 2889.99 200C2889.99 198.71 2889.57 198.44 2888.34 198.32L2887.38 198.23V197.18H2895.48C2897.28 201.8 2899.17 206.33 2901.03 210.98C2902.98 206.36 2904.81 201.8 2906.55 197.18H2914.23V198.23L2913.18 198.32C2911.98 198.41 2911.65 198.77 2911.62 200C2911.56 202.85 2911.77 213.2 2911.86 215.24C2911.92 216.47 2912.22 216.83 2913.42 216.92L2914.47 217.01V218H2905.05V217.01L2906.01 216.92C2907.24 216.8 2907.66 216.53 2907.66 215.24C2907.66 211.82 2907.54 204.8 2907.36 199.64C2904.93 205.64 2902.5 211.76 2900.19 217.82H2899.26C2896.86 211.7 2894.4 205.73 2891.82 199.64Z" fill="black"/>
<path d="M2872.53 355H2831.44V350.392L2835.54 350.008C2840.79 349.496 2842.45 348.344 2842.58 342.84C2842.83 331.576 2842.96 321.208 2842.96 310.072C2842.96 298.936 2842.83 289.592 2842.58 278.584C2842.45 273.08 2840.79 271.928 2835.54 271.416L2831.44 271.032V266.168H2866.77C2870.1 266.168 2873.3 266.296 2876.5 266.424C2911.83 267.32 2927.44 283.832 2927.44 308.152C2927.44 336.056 2906.96 355 2872.53 355ZM2863.57 340.28C2863.7 346.68 2865.75 347.96 2875.09 347.96C2891.47 347.96 2905.68 334.264 2905.68 309.432C2905.68 283.96 2895.7 273.08 2872.4 273.08C2867.92 273.08 2866.13 273.336 2863.95 273.72C2863.7 281.784 2863.31 300.728 2863.31 310.2C2863.31 321.208 2863.44 332.856 2863.57 340.28ZM2872.81 416.824H2882.16C2890.86 416.824 2893.55 415.672 2894.06 405.176H2899.18V434.872H2894.06C2893.55 425.4 2891.12 423.224 2882.41 423.224H2872.81C2872.81 433.848 2872.81 445.88 2873.07 452.408C2873.2 457.656 2876.4 459.576 2890.35 459.576C2902.89 459.576 2907.37 455.48 2908.14 441.784H2912.88V467H2840.94V462.392L2845.04 462.008C2850.29 461.496 2851.95 460.344 2852.08 454.84C2852.33 443.576 2852.46 433.592 2852.46 422.456C2852.46 411.32 2852.33 401.208 2852.08 390.2C2851.95 384.696 2850.29 383.544 2845.04 383.416L2840.94 383.032V378.168H2912.88V404.28H2908.14C2907.37 389.944 2903.28 385.336 2889.84 385.336C2883.31 385.336 2877.93 385.336 2873.58 385.592C2873.2 392.888 2872.94 407.48 2872.81 416.824ZM2890.67 497.848C2890.29 507.704 2890.03 526.776 2890.03 534.712C2890.03 545.848 2890.03 561.08 2890.29 566.84C2890.41 572.088 2891.82 573.624 2896.94 574.008L2901.42 574.392V579H2858.16V574.392L2862.25 574.008C2867.5 573.496 2869.17 572.344 2869.29 566.84C2869.55 555.576 2869.68 545.592 2869.68 534.456C2869.68 524.344 2869.55 508.856 2869.42 497.848C2866.86 497.848 2864.43 497.848 2862 498.104C2847.92 499 2845.36 501.56 2844.08 516.152H2838.96V490.168H2921.26V516.152H2916.4C2915.25 501.816 2911.92 499 2898.22 498.104C2895.79 497.848 2893.1 497.848 2890.67 497.848ZM2883.1 653.496L2871.96 625.08C2868.38 633.784 2864.54 644.024 2861.08 653.496H2883.1ZM2831.13 691V686.52L2834.45 686.264C2837.66 686.008 2839.45 684.472 2842.01 678.968C2849.56 662.712 2865.82 620.6 2872.86 601.144H2883.86C2891.16 621.24 2908.95 662.456 2917.14 680.376C2919.06 684.472 2920.22 686.008 2923.8 686.264L2927.13 686.52V691H2884.76V686.52L2888.34 686.264C2892.06 686.008 2893.46 684.6 2893.46 682.296C2893.46 679.864 2890.01 671.288 2885.78 660.664H2858.65C2854.04 672.312 2851.22 680.888 2851.22 682.296C2851.22 684.6 2852.63 686.008 2856.09 686.264L2859.93 686.52V691H2831.13ZM2889.94 758.712C2889.94 769.848 2889.94 785.08 2890.19 790.84C2890.32 796.088 2891.73 797.624 2896.85 798.008L2901.33 798.392V803H2858.07V798.392L2862.16 798.008C2867.41 797.496 2869.07 796.344 2869.2 790.84C2869.46 779.576 2869.59 769.592 2869.59 758.456C2869.59 747.32 2869.46 737.592 2869.2 726.584C2869.07 721.08 2867.41 719.928 2862.16 719.416L2858.07 719.032V714.168H2901.84V719.032L2897.36 719.416C2892.24 719.8 2890.96 721.336 2890.71 726.584C2890.32 735.416 2889.94 749.624 2889.94 758.712ZM2874.32 900.152C2874.45 905.272 2879.44 907.064 2892.88 907.064C2905.94 907.064 2912.85 902.968 2914.51 884.536H2919.25V915H2842.19V910.392L2846.29 910.008C2851.54 909.496 2853.2 908.344 2853.33 902.84C2853.58 891.576 2853.71 881.592 2853.71 870.456C2853.71 859.32 2853.58 849.592 2853.33 838.584C2853.2 833.08 2851.54 831.928 2846.29 831.416L2842.19 831.032V826.168H2886.48V831.032L2881.49 831.416C2876.37 831.8 2875.09 833.336 2874.83 838.584C2874.45 847.416 2874.06 861.624 2874.06 870.712C2874.06 881.848 2874.06 893.368 2874.32 900.152Z" fill="black"/>
<g clip-path="url(#clip0_1351_4086)">
<mask id="mask0_1351_4086" style="mask-type:luminance" maskUnits="userSpaceOnUse" x="2744" y="1019" width="147" height="25">
<path d="M2890.5 1019H2744.5V1043.97H2890.5V1019Z" fill="white"/>
</mask>
<g mask="url(#mask0_1351_4086)">
<path d="M2777.85 1030.26C2777.74 1029.72 2777.8 1029.32 2778.02 1029.05C2778.23 1028.78 2778.58 1028.67 2778.83 1028.67C2779.15 1028.67 2779.91 1028.78 2779.91 1029.91C2779.91 1031.04 2778.85 1032.28 2778.85 1032.31L2778.53 1032.74C2778.18 1031.42 2777.88 1030.37 2777.85 1030.26ZM2778.5 1042.3C2778.5 1042.3 2778.5 1042.41 2778.5 1042.46C2778.5 1042.87 2778.18 1043.19 2777.77 1043.19C2777.37 1043.19 2777.04 1042.87 2777.04 1042.46C2777.04 1042.22 2777.15 1042.01 2777.37 1041.87L2777.69 1041.66L2775.04 1037.45C2775.04 1037.45 2774.93 1037.21 2774.93 1037.1C2774.93 1036.73 2775.23 1036.43 2775.61 1036.43C2775.63 1036.43 2775.69 1036.43 2775.71 1036.43L2776.17 1035.78L2773.63 1030.37L2775.06 1029.32L2778.5 1042.33V1042.3ZM2771.27 1042.87C2771.14 1043.06 2770.92 1043.16 2770.68 1043.16C2770.27 1043.16 2769.95 1042.84 2769.95 1042.44C2769.95 1042.03 2770.27 1041.71 2770.68 1041.71C2770.76 1041.71 2770.84 1041.71 2770.92 1041.74L2771.3 1041.87L2773.68 1035.22C2773.82 1034.84 2774.14 1034.76 2774.31 1034.73C2774.58 1034.71 2774.82 1034.76 2774.9 1034.87L2775.25 1035.62C2774.6 1035.78 2774.14 1036.38 2774.14 1037.05C2774.14 1037.32 2774.23 1037.59 2774.36 1037.83L2774.58 1038.18L2771.27 1042.84V1042.87ZM2770.62 1031.58C2770.62 1031.58 2770.33 1031.74 2770.16 1031.74C2770.03 1031.74 2769.89 1031.72 2769.76 1031.61C2769.57 1031.47 2769.43 1031.26 2769.43 1031.02C2769.43 1030.72 2769.62 1030.45 2769.89 1030.34C2770.08 1030.26 2770.3 1030.26 2770.46 1030.34L2770.68 1030.45L2774.6 1027.54L2774.39 1026.7L2772.71 1027.94C2772.66 1027.67 2772.63 1027.43 2772.63 1027.16C2772.63 1025.44 2773.66 1023.9 2775.28 1023.26C2775.31 1023.26 2775.44 1023.2 2775.58 1023.15H2776.17C2776.17 1023.15 2776.23 1023.18 2776.26 1023.18C2776.61 1023.18 2776.93 1023.04 2777.18 1022.8C2777.45 1022.56 2777.61 1022.21 2777.61 1021.83V1020.35C2778.91 1020.72 2779.83 1021.91 2779.83 1023.28C2779.83 1024.23 2779.4 1025.12 2778.64 1025.68L2770.6 1031.61L2770.62 1031.58ZM2768.54 1037.97C2768.49 1038.34 2768.4 1038.72 2768.27 1039.07L2756.2 1027.57H2769.54L2769.33 1029.72C2768.89 1029.99 2768.59 1030.48 2768.59 1031.02C2768.59 1031.45 2768.78 1031.85 2769.08 1032.12L2768.51 1037.94L2768.54 1037.97ZM2766.73 1041.44H2758.47C2758.14 1041.14 2757.85 1040.79 2757.6 1040.42H2767.57C2767.32 1040.79 2767.02 1041.12 2766.7 1041.44M2762.58 1043.19C2761.39 1043.19 2760.23 1042.76 2759.23 1042.09H2765.91C2764.94 1042.79 2763.75 1043.19 2762.58 1043.19ZM2756.82 1038.77H2766.78L2767.84 1039.8H2757.22C2757.06 1039.47 2756.93 1039.12 2756.82 1038.77ZM2756.66 1037.97L2756.57 1037.13H2765.05L2766.1 1038.15H2756.68C2756.68 1038.15 2756.68 1038.05 2756.68 1037.99M2756.44 1035.49H2763.34L2764.4 1036.48H2756.55L2756.44 1035.49ZM2756.28 1033.84H2761.61L2762.67 1034.87H2756.38L2756.28 1033.84ZM2756.11 1032.2H2759.88L2760.93 1033.22H2756.22L2756.11 1032.2ZM2755.06 1031.77C2754.9 1031.77 2754.73 1031.72 2754.6 1031.61L2746.56 1025.68C2745.8 1025.09 2745.37 1024.23 2745.37 1023.28C2745.37 1021.91 2746.29 1020.72 2747.59 1020.35V1021.88C2747.59 1022.26 2747.75 1022.61 2748.02 1022.85C2748.26 1023.09 2748.59 1023.23 2748.94 1023.23C2748.94 1023.23 2748.99 1023.23 2749.02 1023.23H2749.62C2749.62 1023.23 2749.86 1023.28 2749.91 1023.28C2751.54 1023.93 2752.57 1025.47 2752.57 1027.19C2752.57 1027.46 2752.54 1027.73 2752.49 1027.97L2750.81 1026.73L2750.59 1027.57L2754.52 1030.48L2754.73 1030.37C2754.92 1030.29 2755.14 1030.29 2755.3 1030.37C2755.57 1030.48 2755.76 1030.75 2755.76 1031.04C2755.76 1031.28 2755.63 1031.5 2755.44 1031.63C2755.3 1031.72 2755.17 1031.77 2755.03 1031.77M2748.99 1035.78L2749.45 1036.43C2749.45 1036.43 2749.54 1036.43 2749.56 1036.43C2749.94 1036.43 2750.24 1036.73 2750.24 1037.1C2750.24 1037.24 2750.21 1037.35 2750.13 1037.45L2747.48 1041.66L2747.8 1041.87C2747.99 1042.01 2748.13 1042.22 2748.13 1042.46C2748.13 1042.87 2747.8 1043.19 2747.4 1043.19C2746.99 1043.19 2746.67 1042.87 2746.67 1042.46C2746.67 1042.41 2746.67 1042.36 2746.67 1042.3L2750.1 1029.29L2751.51 1030.34L2748.97 1035.76L2748.99 1035.78ZM2750.89 1034.76C2751.05 1034.76 2751.38 1034.87 2751.51 1035.24L2753.89 1041.9L2754.27 1041.76C2754.27 1041.76 2754.44 1041.74 2754.52 1041.74C2754.92 1041.74 2755.25 1042.06 2755.25 1042.46C2755.25 1042.87 2754.92 1043.19 2754.52 1043.19C2754.27 1043.19 2754.06 1043.08 2753.92 1042.9L2750.62 1038.23L2750.86 1037.88C2751 1037.64 2751.08 1037.37 2751.08 1037.1C2751.08 1036.4 2750.59 1035.84 2749.97 1035.68L2750.32 1034.92C2750.32 1034.92 2750.67 1034.73 2750.92 1034.79M2754.19 1022.66L2754.06 1022.48C2754.06 1022.48 2753.92 1022.21 2753.92 1022.04C2753.92 1021.64 2754.25 1021.32 2754.65 1021.32C2755.06 1021.32 2755.38 1021.64 2755.38 1022.04C2755.38 1022.13 2755.38 1022.21 2755.33 1022.29L2753.19 1026.84C2753.16 1026.35 2753.05 1025.87 2752.87 1025.41L2754.16 1022.66H2754.19ZM2756.06 1029.88C2756.06 1029.88 2755.92 1029.78 2755.84 1029.72L2755.71 1028.21L2757.44 1029.88H2756.06ZM2756.49 1030.53H2758.12L2759.17 1031.55H2756.47C2756.52 1031.39 2756.55 1031.23 2756.55 1031.04C2756.55 1030.85 2756.52 1030.69 2756.47 1030.53M2756.01 1022.66L2756.25 1025.68H2768.84L2769.11 1022.66L2771.87 1028.54L2770.49 1029.56C2770.49 1029.56 2770.25 1029.51 2770.11 1029.51L2770.38 1026.79H2754.79L2755.06 1029.51C2755.06 1029.51 2754.81 1029.51 2754.68 1029.56L2753.3 1028.54L2756.06 1022.66H2756.01ZM2757.09 1020.1L2757.14 1021.24H2757.79L2757.74 1020.1H2758.39L2758.44 1021.83H2756.6L2756.47 1020.1H2757.12H2757.09ZM2759.66 1020.1V1021.24H2760.34V1020.1H2760.96V1021.83H2759.09L2759.04 1020.1H2759.69H2759.66ZM2762.23 1020.1V1021.24H2762.88V1020.1H2763.53V1021.83H2761.61V1020.1H2762.23ZM2764.8 1020.1V1021.24H2765.43V1020.1H2766.1L2766.05 1021.83H2764.15V1020.1H2764.83H2764.8ZM2767.38 1020.1L2767.32 1021.24H2767.97L2768.03 1020.1H2768.68L2768.54 1021.83H2766.7L2766.75 1020.1H2767.4H2767.38ZM2768.4 1023.36H2766.65V1022.48H2768.49L2768.4 1023.36ZM2768.35 1024.01L2768.27 1025.06H2756.84L2756.76 1024.01H2768.35ZM2758.47 1023.36H2756.68L2756.6 1022.48H2758.42V1023.36H2758.47ZM2760.96 1023.36H2759.09V1022.48H2760.93V1023.36H2760.96ZM2763.45 1023.36H2761.58V1022.48H2763.45V1023.36ZM2765.94 1023.36H2764.07V1022.48H2765.97V1023.36H2765.94ZM2770.46 1021.32C2770.87 1021.32 2771.19 1021.64 2771.19 1022.04C2771.19 1022.21 2771.14 1022.34 2771.06 1022.48L2770.92 1022.66L2772.22 1025.41C2772.06 1025.87 2771.95 1026.33 2771.9 1026.84L2769.76 1022.29C2769.76 1022.29 2769.7 1022.13 2769.7 1022.04C2769.7 1021.64 2770.03 1021.32 2770.44 1021.32M2746.69 1032.74L2746.4 1032.34C2746.1 1031.96 2745.34 1030.83 2745.34 1029.94C2745.34 1028.83 2746.1 1028.7 2746.42 1028.7C2746.67 1028.7 2747.04 1028.81 2747.26 1029.08C2747.48 1029.34 2747.53 1029.75 2747.42 1030.29C2747.42 1030.4 2747.13 1031.45 2746.75 1032.77M2779.67 1035.43C2779.67 1035.43 2779.42 1035.46 2779.31 1035.51C2779.15 1034.95 2778.99 1034.36 2778.83 1033.76L2779.5 1032.85C2779.5 1032.85 2780.75 1031.28 2780.75 1029.96C2780.75 1028 2779.07 1027.94 2778.88 1027.94C2778.45 1027.94 2777.83 1028.11 2777.42 1028.62C2777.04 1029.08 2776.93 1029.7 2777.09 1030.48C2777.12 1030.61 2777.53 1032.12 2777.93 1033.6L2777.28 1034.49L2775.8 1028.83L2779.15 1026.35C2780.1 1025.63 2780.64 1024.5 2780.64 1023.31C2780.64 1021.51 2779.37 1019.94 2777.64 1019.57V1019.16L2776.99 1019V1019.43L2775.06 1019.32H2774.41V1020.86H2775.04C2775.23 1020.86 2775.36 1021.02 2775.36 1021.18C2775.36 1021.34 2775.2 1021.51 2775.04 1021.51L2772.93 1021.26L2773.09 1021.91L2774.96 1022.13C2774.96 1022.13 2774.98 1022.13 2775.01 1022.13C2775.55 1022.13 2775.98 1021.69 2775.98 1021.16C2775.98 1020.62 2775.55 1020.19 2775.04 1020.19V1019.92L2776.96 1020.02V1021.83C2776.96 1022.02 2776.88 1022.21 2776.74 1022.34C2776.61 1022.48 2776.42 1022.53 2776.2 1022.53L2774.04 1022.39L2774.2 1023.04C2773.6 1023.42 2773.12 1023.93 2772.74 1024.5L2771.9 1022.69C2772.01 1022.48 2772.06 1022.23 2772.06 1021.99C2772.06 1021.16 2771.38 1020.48 2770.54 1020.48C2770 1020.48 2769.54 1020.75 2769.27 1021.16L2769.43 1019.38H2755.79L2755.92 1021.16C2755.65 1020.75 2755.19 1020.48 2754.65 1020.48C2753.81 1020.48 2753.14 1021.16 2753.14 1021.99C2753.14 1022.23 2753.19 1022.48 2753.3 1022.69L2752.46 1024.5C2752.08 1023.93 2751.59 1023.45 2751 1023.07L2751.19 1022.42L2749.02 1022.56C2748.83 1022.56 2748.64 1022.5 2748.48 1022.37C2748.34 1022.23 2748.26 1022.04 2748.26 1021.86V1020.08L2750.19 1019.97V1020.24C2749.64 1020.24 2749.21 1020.67 2749.21 1021.21C2749.21 1021.75 2749.64 1022.18 2750.19 1022.18H2750.24L2752.13 1021.96L2752.3 1021.32L2750.19 1021.56C2750 1021.56 2749.86 1021.4 2749.86 1021.24C2749.86 1021.07 2750.02 1020.91 2750.19 1020.91H2750.81V1019.32H2750.19L2748.24 1019.43V1019L2747.59 1019.16V1019.51C2745.85 1019.92 2744.58 1021.45 2744.58 1023.28C2744.58 1024.47 2745.12 1025.6 2746.07 1026.33L2749.43 1028.81L2747.94 1034.46L2747.29 1033.57C2747.69 1032.09 2748.1 1030.58 2748.13 1030.45C2748.29 1029.67 2748.18 1029.05 2747.83 1028.59C2747.42 1028.11 2746.83 1027.92 2746.37 1027.92C2746.18 1027.89 2744.5 1027.94 2744.5 1029.94C2744.5 1031.23 2745.64 1032.69 2745.75 1032.82L2746.42 1033.74C2746.26 1034.33 2746.1 1034.92 2745.93 1035.49C2745.83 1035.43 2745.69 1035.41 2745.58 1035.41C2745.07 1035.41 2744.66 1035.81 2744.66 1036.32C2744.66 1036.83 2745.07 1037.24 2745.58 1037.24C2746.02 1037.24 2746.37 1036.94 2746.48 1036.54C2746.53 1036.32 2746.77 1035.49 2747.02 1034.52L2747.67 1035.41L2745.91 1042.06C2745.91 1042.06 2745.88 1042.3 2745.88 1042.41C2745.88 1043.25 2746.56 1043.95 2747.42 1043.95C2748.29 1043.95 2748.97 1043.27 2748.97 1042.41C2748.97 1042.03 2748.83 1041.68 2748.59 1041.41L2750.19 1038.91L2753.3 1043.3C2753.6 1043.7 2754.06 1043.95 2754.54 1043.95C2755.38 1043.95 2756.09 1043.27 2756.09 1042.41C2756.09 1041.55 2755.41 1040.88 2754.54 1040.88C2754.52 1040.88 2754.49 1040.88 2754.46 1040.88L2752.32 1034.89C2752.13 1034.36 2751.67 1033.98 2751.05 1033.9C2750.97 1033.9 2750.86 1033.9 2750.78 1033.9L2752.24 1030.8L2754.14 1032.2C2754.41 1032.42 2754.73 1032.52 2755.09 1032.52C2755.17 1032.52 2755.27 1032.52 2755.36 1032.52L2755.9 1038.05C2756.06 1039.55 2756.87 1041.04 2758.12 1042.17C2759.42 1043.33 2761.01 1043.97 2762.61 1043.97C2764.21 1043.97 2765.81 1043.33 2767.11 1042.17C2768.38 1041.04 2769.19 1039.53 2769.33 1038.02L2769.87 1032.5C2769.87 1032.5 2770.06 1032.5 2770.14 1032.5C2770.49 1032.5 2770.81 1032.39 2771.08 1032.17L2772.98 1030.77L2774.44 1033.87C2774.44 1033.87 2774.25 1033.87 2774.17 1033.87C2773.58 1033.95 2773.12 1034.33 2772.9 1034.89L2770.76 1040.88C2770.76 1040.88 2770.71 1040.88 2770.68 1040.88C2769.84 1040.88 2769.14 1041.55 2769.14 1042.41C2769.14 1043.27 2769.81 1043.95 2770.68 1043.95C2771.17 1043.95 2771.65 1043.7 2771.92 1043.3L2775.04 1038.91L2776.63 1041.41C2776.39 1041.68 2776.26 1042.03 2776.26 1042.41C2776.26 1043.25 2776.93 1043.95 2777.8 1043.95C2778.67 1043.95 2779.34 1043.27 2779.34 1042.41C2779.34 1042.3 2779.34 1042.2 2779.31 1042.09L2777.56 1035.41L2778.23 1034.52C2778.5 1035.49 2778.72 1036.32 2778.77 1036.54C2778.88 1036.94 2779.23 1037.24 2779.67 1037.24C2780.18 1037.24 2780.59 1036.83 2780.59 1036.32C2780.59 1035.81 2780.18 1035.41 2779.67 1035.41" fill="black"/>
</g>
<path d="M2789.41 1027.65V1020.21H2794.42V1021.07H2790.33V1023.34H2793.91V1024.23H2790.33V1026.79H2794.42V1027.65H2789.41Z" fill="black"/>
<path d="M2795.83 1027.65H2796.75V1022.31H2795.83V1027.65ZM2795.77 1021.1H2796.83V1020.05H2795.77V1021.1Z" fill="black"/>
<mask id="mask1_1351_4086" style="mask-type:luminance" maskUnits="userSpaceOnUse" x="2744" y="1019" width="147" height="25">
<path d="M2890.5 1019H2744.5V1043.97H2890.5V1019Z" fill="white"/>
</mask>
<g mask="url(#mask1_1351_4086)">
<path d="M2802.06 1027.65V1024.28C2802.06 1023.47 2801.73 1023.01 2800.89 1023.01C2800.38 1023.01 2799.97 1023.34 2799.73 1023.82C2799.54 1024.2 2799.54 1024.77 2799.54 1025.17V1027.65H2798.64V1022.31H2799.43L2799.51 1023.12C2799.78 1022.5 2800.54 1022.18 2801.14 1022.18C2802.35 1022.18 2802.98 1022.91 2802.98 1024.15V1027.65H2802.08H2802.06Z" fill="black"/>
<path d="M2807.79 1023.45C2807.58 1023.15 2807.2 1022.96 2806.74 1022.96C2805.76 1022.96 2805.3 1023.74 2805.28 1024.52H2808.12C2808.12 1024.12 2808.01 1023.71 2807.79 1023.45ZM2809.04 1025.3H2805.25C2805.25 1025.79 2805.44 1026.33 2805.76 1026.65C2806.01 1026.89 2806.33 1027.03 2806.74 1027.03C2807.14 1027.03 2807.52 1026.92 2807.74 1026.68C2807.9 1026.52 2807.98 1026.38 2808.06 1026.09H2808.93C2808.85 1026.62 2808.55 1027.11 2808.12 1027.41C2807.74 1027.65 2807.25 1027.81 2806.77 1027.81C2806.01 1027.81 2805.41 1027.49 2804.98 1027C2804.55 1026.49 2804.3 1025.79 2804.3 1025.01C2804.3 1024.36 2804.41 1023.8 2804.71 1023.31C2805.09 1022.66 2805.79 1022.21 2806.74 1022.21C2807.42 1022.21 2807.98 1022.48 2808.36 1022.88C2808.8 1023.34 2809.04 1024.04 2809.04 1024.74V1025.28V1025.3Z" fill="black"/>
</g>
<path d="M2817.57 1027.65L2815.32 1023.79L2813.78 1025.55V1027.65H2812.86V1020.21H2813.78V1024.17L2817.22 1020.21H2818.41L2815.97 1023.04L2818.65 1027.65H2817.57Z" fill="black"/>
<mask id="mask2_1351_4086" style="mask-type:luminance" maskUnits="userSpaceOnUse" x="2744" y="1019" width="147" height="25">
<path d="M2890.5 1019H2744.5V1043.97H2890.5V1019Z" fill="white"/>
</mask>
<g mask="url(#mask2_1351_4086)">
<path d="M2822.93 1027.65L2822.85 1026.84C2822.58 1027.46 2821.87 1027.78 2821.25 1027.78C2820.03 1027.78 2819.41 1027.05 2819.41 1025.82V1022.31H2820.3V1025.68C2820.3 1026.49 2820.6 1026.95 2821.44 1026.95C2821.79 1026.95 2822.09 1026.79 2822.33 1026.54C2822.66 1026.19 2822.77 1025.63 2822.77 1025.06V1022.29H2823.66V1027.62H2822.87L2822.93 1027.65Z" fill="black"/>
<path d="M2826.66 1027.73C2825.88 1027.73 2825.55 1027.27 2825.55 1026.44V1020.08H2826.45V1026.38C2826.45 1026.73 2826.56 1026.92 2826.93 1026.92C2827.23 1026.92 2827.31 1026.92 2827.31 1026.92V1027.67C2827.31 1027.67 2827.12 1027.73 2826.69 1027.73" fill="black"/>
<path d="M2830.26 1027.73C2829.1 1027.73 2828.8 1027 2828.8 1026.3V1023.12H2827.77V1022.37H2828.8V1021.02L2829.7 1020.81V1022.37H2831.29V1023.12H2829.7V1026.19C2829.7 1026.7 2829.91 1026.92 2830.43 1026.92C2830.81 1026.92 2831.35 1026.84 2831.35 1026.84V1027.59C2831.1 1027.65 2830.78 1027.73 2830.29 1027.73" fill="black"/>
<path d="M2835.95 1027.65L2835.87 1026.84C2835.6 1027.46 2834.89 1027.78 2834.27 1027.78C2833.05 1027.78 2832.43 1027.05 2832.43 1025.82V1022.31H2833.32V1025.68C2833.32 1026.49 2833.62 1026.95 2834.46 1026.95C2834.81 1026.95 2835.11 1026.79 2835.35 1026.54C2835.68 1026.19 2835.79 1025.63 2835.79 1025.06V1022.29H2836.68V1027.62H2835.89L2835.95 1027.65Z" fill="black"/>
<path d="M2840.98 1023.18C2840.55 1023.18 2840.2 1023.36 2839.96 1023.61C2839.52 1024.01 2839.47 1024.76 2839.47 1025.3V1027.67H2838.58V1022.34H2839.36L2839.44 1023.28C2839.71 1022.64 2840.36 1022.31 2841.04 1022.31C2841.17 1022.31 2841.34 1022.31 2841.47 1022.34V1023.2C2841.31 1023.18 2841.15 1023.15 2840.98 1023.15" fill="black"/>
</g>
<path d="M2842.56 1027.65H2843.48V1022.31H2842.56V1027.65ZM2842.5 1021.1H2843.56V1020.05H2842.5V1021.1Z" fill="black"/>
<mask id="mask3_1351_4086" style="mask-type:luminance" maskUnits="userSpaceOnUse" x="2744" y="1019" width="147" height="25">
<path d="M2890.5 1019H2744.5V1043.97H2890.5V1019Z" fill="white"/>
</mask>
<g mask="url(#mask3_1351_4086)">
<path d="M2848.78 1027.65V1024.28C2848.78 1023.47 2848.46 1023.01 2847.62 1023.01C2847.1 1023.01 2846.7 1023.34 2846.45 1023.82C2846.26 1024.2 2846.26 1024.77 2846.26 1025.17V1027.65H2845.37V1022.31H2846.16L2846.24 1023.12C2846.51 1022.5 2847.27 1022.18 2847.86 1022.18C2849.08 1022.18 2849.7 1022.91 2849.7 1024.15V1027.65H2848.81H2848.78Z" fill="black"/>
<path d="M2854.98 1027.19C2854.57 1027.62 2853.92 1027.78 2853.25 1027.78C2852.57 1027.78 2851.98 1027.62 2851.52 1027.19C2851.19 1026.87 2851 1026.44 2851 1025.98H2851.89C2851.89 1026.35 2852.08 1026.62 2852.33 1026.81C2852.57 1027 2852.95 1027.06 2853.28 1027.06C2853.65 1027.06 2853.98 1027 2854.25 1026.76C2854.41 1026.65 2854.52 1026.44 2854.52 1026.17C2854.52 1025.76 2854.25 1025.49 2853.68 1025.41L2852.46 1025.25C2851.65 1025.12 2851.16 1024.63 2851.16 1023.82C2851.16 1023.42 2851.35 1023.01 2851.6 1022.77C2851.95 1022.42 2852.52 1022.18 2853.17 1022.18C2853.87 1022.18 2854.52 1022.39 2854.87 1022.85C2855.12 1023.15 2855.25 1023.45 2855.25 1023.88H2854.36C2854.36 1023.61 2854.22 1023.34 2854.06 1023.2C2853.84 1023.01 2853.55 1022.93 2853.19 1022.93C2852.98 1022.93 2852.81 1022.93 2852.57 1023.04C2852.25 1023.18 2852.03 1023.47 2852.03 1023.77C2852.03 1024.2 2852.3 1024.39 2852.76 1024.47C2853.06 1024.52 2853.46 1024.55 2854.06 1024.66C2854.82 1024.79 2855.41 1025.33 2855.41 1026.14C2855.41 1026.6 2855.25 1026.95 2854.98 1027.22" fill="black"/>
<path d="M2858.53 1027.73C2857.36 1027.73 2857.06 1027 2857.06 1026.3V1023.12H2856.04V1022.37H2857.06V1021.02L2857.96 1020.81V1022.37H2859.56V1023.12H2857.96V1026.19C2857.96 1026.7 2858.17 1026.92 2858.69 1026.92C2859.07 1026.92 2859.61 1026.84 2859.61 1026.84V1027.59C2859.37 1027.65 2859.04 1027.73 2858.55 1027.73" fill="black"/>
</g>
<path d="M2860.8 1027.65H2861.72V1022.31H2860.8V1027.65ZM2860.75 1021.1H2861.8V1020.05H2860.75V1021.1Z" fill="black"/>
<mask id="mask4_1351_4086" style="mask-type:luminance" maskUnits="userSpaceOnUse" x="2744" y="1019" width="147" height="25">
<path d="M2890.5 1019H2744.5V1043.97H2890.5V1019Z" fill="white"/>
</mask>
<g mask="url(#mask4_1351_4086)">
<path d="M2865.3 1027.73C2864.13 1027.73 2863.83 1027 2863.83 1026.3V1023.12H2862.81V1022.37H2863.83V1021.02L2864.73 1020.81V1022.37H2866.33V1023.12H2864.73V1026.19C2864.73 1026.7 2864.94 1026.92 2865.46 1026.92C2865.84 1026.92 2866.38 1026.84 2866.38 1026.84V1027.59C2866.14 1027.65 2865.81 1027.73 2865.32 1027.73" fill="black"/>
<path d="M2870.95 1027.65L2870.87 1026.84C2870.6 1027.46 2869.9 1027.78 2869.28 1027.78C2868.06 1027.78 2867.43 1027.06 2867.43 1025.82V1022.31H2868.33V1025.68C2868.33 1026.49 2868.63 1026.95 2869.46 1026.95C2869.82 1026.95 2870.11 1026.79 2870.36 1026.54C2870.68 1026.19 2870.79 1025.63 2870.79 1025.06V1022.29H2871.68V1027.62H2870.9L2870.95 1027.65Z" fill="black"/>
<path d="M2875.31 1027.73C2874.15 1027.73 2873.85 1027 2873.85 1026.3V1023.12H2872.82V1022.37H2873.85V1021.02L2874.75 1020.81V1022.37H2876.34V1023.12H2874.75V1026.19C2874.75 1026.7 2874.96 1026.92 2875.48 1026.92C2875.86 1026.92 2876.4 1026.84 2876.4 1026.84V1027.59C2876.15 1027.65 2875.83 1027.73 2875.34 1027.73" fill="black"/>
</g>
<path d="M2877.59 1027.65H2878.51V1022.31H2877.59V1027.65ZM2877.53 1021.1H2878.59V1020.05H2877.53V1021.1Z" fill="black"/>
<mask id="mask5_1351_4086" style="mask-type:luminance" maskUnits="userSpaceOnUse" x="2744" y="1019" width="147" height="25">
<path d="M2890.5 1019H2744.5V1043.97H2890.5V1019Z" fill="white"/>
</mask>
<g mask="url(#mask5_1351_4086)">
<path d="M2883.3 1023.34C2883.08 1023.12 2882.76 1022.96 2882.32 1022.96C2881.89 1022.96 2881.59 1023.12 2881.38 1023.34C2881 1023.71 2880.89 1024.36 2880.89 1024.98C2880.89 1025.6 2881 1026.25 2881.38 1026.62C2881.59 1026.84 2881.92 1027 2882.32 1027C2882.73 1027 2883.06 1026.84 2883.3 1026.62C2883.68 1026.25 2883.79 1025.6 2883.79 1024.98C2883.79 1024.36 2883.68 1023.71 2883.3 1023.34ZM2883.95 1027.16C2883.54 1027.54 2883 1027.78 2882.32 1027.78C2881.65 1027.78 2881.11 1027.54 2880.7 1027.16C2880.1 1026.6 2879.94 1025.82 2879.94 1024.98C2879.94 1024.15 2880.13 1023.36 2880.7 1022.8C2881.08 1022.42 2881.65 1022.18 2882.32 1022.18C2883 1022.18 2883.54 1022.42 2883.95 1022.8C2884.52 1023.36 2884.71 1024.15 2884.71 1024.98C2884.71 1025.82 2884.52 1026.6 2883.95 1027.16Z" fill="black"/>
<path d="M2889.61 1027.65V1024.28C2889.61 1023.47 2889.28 1023.01 2888.44 1023.01C2887.93 1023.01 2887.52 1023.34 2887.28 1023.82C2887.09 1024.2 2887.09 1024.77 2887.09 1025.17V1027.65H2886.2V1022.31H2886.98L2887.06 1023.12C2887.33 1022.5 2888.09 1022.18 2888.69 1022.18C2889.91 1022.18 2890.53 1022.91 2890.53 1024.15V1027.65H2889.63H2889.61Z" fill="black"/>
<path d="M2792.2 1036.24C2791.98 1036.05 2791.71 1035.89 2791.34 1035.89C2790.14 1035.89 2789.82 1036.97 2789.82 1037.94C2789.82 1038.91 2790.14 1039.99 2791.34 1039.99C2791.71 1039.99 2791.98 1039.82 2792.2 1039.64C2792.63 1039.26 2792.8 1038.61 2792.8 1037.94C2792.8 1037.27 2792.66 1036.62 2792.2 1036.24ZM2792.85 1040.61L2792.8 1039.91C2792.5 1040.44 2791.8 1040.74 2791.2 1040.74C2790.55 1040.74 2790.04 1040.53 2789.68 1040.18C2789.17 1039.66 2788.93 1038.86 2788.93 1037.97C2788.93 1037.08 2789.2 1036.22 2789.74 1035.7C2790.09 1035.38 2790.58 1035.16 2791.2 1035.16C2791.8 1035.16 2792.47 1035.43 2792.74 1035.92V1033.04H2793.64V1040.63H2792.85V1040.61Z" fill="black"/>
<path d="M2798.59 1036.38C2798.37 1036.08 2797.99 1035.89 2797.53 1035.89C2796.56 1035.89 2796.1 1036.67 2796.07 1037.45H2798.91C2798.91 1037.05 2798.81 1036.65 2798.59 1036.38ZM2799.84 1038.24H2796.05C2796.05 1038.72 2796.23 1039.26 2796.56 1039.58C2796.8 1039.82 2797.13 1039.96 2797.53 1039.96C2797.94 1039.96 2798.32 1039.85 2798.54 1039.61C2798.7 1039.47 2798.78 1039.31 2798.86 1039.04H2799.73C2799.65 1039.56 2799.35 1040.07 2798.91 1040.36C2798.54 1040.61 2798.05 1040.77 2797.56 1040.77C2796.8 1040.77 2796.21 1040.44 2795.77 1039.96C2795.34 1039.45 2795.1 1038.75 2795.1 1037.97C2795.1 1037.32 2795.21 1036.75 2795.5 1036.27C2795.88 1035.62 2796.59 1035.16 2797.53 1035.16C2798.21 1035.16 2798.78 1035.43 2799.16 1035.84C2799.59 1036.3 2799.84 1037 2799.84 1037.7V1038.24Z" fill="black"/>
<path d="M2803.63 1036.08C2803.19 1036.08 2802.84 1036.27 2802.6 1036.51C2802.16 1036.91 2802.11 1037.67 2802.11 1038.21V1040.58H2801.22V1035.24H2802L2802.08 1036.19C2802.35 1035.54 2803 1035.22 2803.68 1035.22C2803.82 1035.22 2803.98 1035.22 2804.11 1035.24V1036.11C2803.95 1036.08 2803.79 1036.05 2803.63 1036.05" fill="black"/>
<path d="M2812.1 1039.99C2811.59 1040.5 2810.77 1040.74 2809.96 1040.74C2809.04 1040.74 2808.31 1040.5 2807.82 1040.04C2807.34 1039.61 2807.01 1038.96 2807.01 1038.26H2807.99C2807.99 1038.69 2808.2 1039.15 2808.53 1039.45C2808.85 1039.77 2809.45 1039.91 2809.96 1039.91C2810.53 1039.91 2811.02 1039.8 2811.37 1039.47C2811.61 1039.26 2811.75 1038.99 2811.75 1038.61C2811.75 1038.02 2811.37 1037.56 2810.48 1037.4L2809.28 1037.21C2808.17 1037.05 2807.28 1036.43 2807.28 1035.25C2807.28 1034.68 2807.53 1034.14 2807.93 1033.76C2808.45 1033.28 2809.12 1033.04 2809.91 1033.04C2810.64 1033.04 2811.34 1033.28 2811.86 1033.74C2812.32 1034.17 2812.56 1034.71 2812.59 1035.33H2811.61C2811.61 1034.95 2811.45 1034.63 2811.23 1034.38C2810.94 1034.06 2810.5 1033.87 2809.91 1033.87C2809.37 1033.87 2808.91 1034.03 2808.58 1034.38C2808.39 1034.6 2808.28 1034.87 2808.28 1035.19C2808.28 1035.86 2808.85 1036.16 2809.39 1036.24C2809.83 1036.3 2810.23 1036.38 2810.64 1036.43C2811.88 1036.62 2812.72 1037.37 2812.72 1038.56C2812.72 1039.18 2812.45 1039.64 2812.1 1039.99Z" fill="black"/>
<path d="M2815.86 1040.66C2814.7 1040.66 2814.4 1039.93 2814.4 1039.23V1036.05H2813.37V1035.27H2814.4V1033.92L2815.29 1033.71V1035.27H2816.89V1036.05H2815.29V1039.12C2815.29 1039.64 2815.51 1039.85 2816.02 1039.85C2816.4 1039.85 2816.94 1039.77 2816.94 1039.77V1040.53C2816.7 1040.58 2816.38 1040.66 2815.89 1040.66" fill="black"/>
<path d="M2821.2 1038.02L2819.76 1038.1C2819.22 1038.13 2818.6 1038.4 2818.6 1039.04C2818.6 1039.53 2818.9 1039.96 2819.65 1039.96C2820.06 1039.96 2820.47 1039.82 2820.76 1039.53C2821.09 1039.21 2821.22 1038.75 2821.22 1038.32V1037.99L2821.2 1038.02ZM2822.04 1040.66C2821.55 1040.66 2821.25 1040.31 2821.25 1039.85C2820.95 1040.39 2820.28 1040.71 2819.52 1040.71C2818.3 1040.71 2817.68 1039.91 2817.68 1039.07C2817.68 1038.4 2818.11 1037.48 2819.57 1037.4L2821.2 1037.29V1036.92C2821.2 1036.65 2821.17 1036.32 2820.93 1036.11C2820.74 1035.95 2820.49 1035.84 2820.06 1035.84C2819.57 1035.84 2819.27 1035.97 2819.08 1036.16C2818.92 1036.32 2818.81 1036.54 2818.81 1036.81H2817.92C2817.92 1036.32 2818.11 1035.97 2818.38 1035.7C2818.73 1035.33 2819.38 1035.14 2820.03 1035.14C2821.06 1035.14 2821.66 1035.57 2821.9 1036.16C2822.01 1036.4 2822.06 1036.67 2822.06 1036.97V1039.56C2822.06 1039.85 2822.17 1039.91 2822.36 1039.91C2822.44 1039.91 2822.6 1039.88 2822.6 1039.88V1040.55C2822.41 1040.63 2822.22 1040.69 2822.01 1040.69" fill="black"/>
<path d="M2826.83 1036.24C2826.61 1036.05 2826.34 1035.89 2825.96 1035.89C2824.77 1035.89 2824.44 1036.97 2824.44 1037.94C2824.44 1038.91 2824.77 1039.99 2825.96 1039.99C2826.34 1039.99 2826.61 1039.82 2826.83 1039.64C2827.26 1039.26 2827.42 1038.61 2827.42 1037.94C2827.42 1037.27 2827.29 1036.62 2826.83 1036.24ZM2827.48 1040.61L2827.42 1039.91C2827.12 1040.44 2826.42 1040.74 2825.82 1040.74C2825.18 1040.74 2824.66 1040.53 2824.31 1040.18C2823.79 1039.66 2823.55 1038.86 2823.55 1037.97C2823.55 1037.08 2823.82 1036.22 2824.36 1035.7C2824.71 1035.38 2825.2 1035.16 2825.82 1035.16C2826.42 1035.16 2827.1 1035.43 2827.37 1035.92V1033.04H2828.26V1040.63H2827.48V1040.61Z" fill="black"/>
<path d="M2831.84 1040.66C2830.67 1040.66 2830.37 1039.93 2830.37 1039.23V1036.05H2829.34V1035.27H2830.37V1033.92L2831.27 1033.71V1035.27H2832.86V1036.05H2831.27V1039.12C2831.27 1039.64 2831.48 1039.85 2832 1039.85C2832.38 1039.85 2832.92 1039.77 2832.92 1039.77V1040.53C2832.67 1040.58 2832.35 1040.66 2831.86 1040.66" fill="black"/>
</g>
<path d="M2835.81 1040.58V1039.64L2840.17 1034.01H2835.84V1033.12H2841.31V1034.06L2836.92 1039.72H2841.34V1040.58H2835.81Z" fill="black"/>
<mask id="mask6_1351_4086" style="mask-type:luminance" maskUnits="userSpaceOnUse" x="2744" y="1019" width="147" height="25">
<path d="M2890.5 1019H2744.5V1043.97H2890.5V1019Z" fill="white"/>
</mask>
<g mask="url(#mask6_1351_4086)">
<path d="M2845.21 1033.31H2846.18V1034.28H2845.21V1033.31ZM2843.34 1033.31H2844.31V1034.28H2843.34V1033.31ZM2846.1 1040.58L2846.02 1039.77C2845.75 1040.39 2845.05 1040.71 2844.42 1040.71C2843.2 1040.71 2842.58 1039.99 2842.58 1038.75V1035.24H2843.48V1038.61C2843.48 1039.42 2843.77 1039.88 2844.61 1039.88C2844.96 1039.88 2845.26 1039.72 2845.51 1039.47C2845.83 1039.12 2845.94 1038.56 2845.94 1037.99V1035.22H2846.83V1040.55H2846.05L2846.1 1040.58Z" fill="black"/>
<path d="M2851.16 1036.08C2850.73 1036.08 2850.38 1036.27 2850.13 1036.51C2849.7 1036.91 2849.65 1037.67 2849.65 1038.21V1040.58H2848.75V1035.24H2849.54L2849.62 1036.19C2849.89 1035.54 2850.54 1035.22 2851.22 1035.22C2851.35 1035.22 2851.52 1035.22 2851.65 1035.24V1036.11C2851.49 1036.08 2851.33 1036.05 2851.16 1036.05" fill="black"/>
</g>
<path d="M2852.73 1040.58H2853.65V1035.24H2852.73V1040.58ZM2852.68 1034.03H2853.74V1032.98H2852.68V1034.03Z" fill="black"/>
<mask id="mask7_1351_4086" style="mask-type:luminance" maskUnits="userSpaceOnUse" x="2744" y="1019" width="147" height="25">
<path d="M2890.5 1019H2744.5V1043.97H2890.5V1019Z" fill="white"/>
</mask>
<g mask="url(#mask7_1351_4086)">
<path d="M2859.04 1040.15C2858.66 1040.52 2858.15 1040.74 2857.5 1040.74C2856.52 1040.74 2855.93 1040.31 2855.55 1039.74C2855.28 1039.31 2855.12 1038.75 2855.12 1037.94C2855.12 1037.13 2855.28 1036.56 2855.55 1036.13C2855.93 1035.57 2856.52 1035.14 2857.5 1035.14C2858.12 1035.14 2858.66 1035.35 2859.01 1035.7C2859.37 1036.05 2859.61 1036.48 2859.66 1037.08H2858.74C2858.69 1036.7 2858.55 1036.46 2858.36 1036.24C2858.15 1036.05 2857.85 1035.92 2857.5 1035.92C2857.09 1035.92 2856.79 1036.08 2856.58 1036.27C2856.14 1036.62 2856.04 1037.29 2856.04 1037.94C2856.04 1038.58 2856.14 1039.26 2856.58 1039.61C2856.82 1039.8 2857.09 1039.96 2857.5 1039.96C2857.88 1039.96 2858.2 1039.82 2858.42 1039.61C2858.61 1039.42 2858.74 1039.18 2858.77 1038.83H2859.69C2859.64 1039.39 2859.42 1039.82 2859.07 1040.17" fill="black"/>
<path d="M2864.37 1040.58V1037.21C2864.37 1036.4 2864.05 1035.94 2863.21 1035.94C2862.7 1035.94 2862.29 1036.27 2862.05 1036.75C2861.86 1037.13 2861.86 1037.7 2861.86 1038.1V1040.58H2860.96V1032.98H2861.86V1035.97C2862.18 1035.43 2862.8 1035.14 2863.43 1035.14C2864.65 1035.14 2865.3 1035.86 2865.3 1037.1V1040.61H2864.4L2864.37 1040.58Z" fill="black"/>
</g>
</g>
<path d="M2924.13 1036V1026.12H2926.2L2926.35 1027.75C2926.8 1026.5 2927.98 1025.99 2929.14 1025.99C2929.39 1025.99 2929.64 1026.01 2929.88 1026.04V1028.32C2929.69 1028.27 2929.41 1028.23 2929.12 1028.23C2927.36 1028.23 2926.52 1029.37 2926.52 1031.21V1036H2924.13ZM2931.18 1026.12H2933.59V1036H2931.18V1026.12ZM2931.1 1022.26H2933.67V1024.71H2931.1V1022.26ZM2940.09 1036.27C2938.68 1036.27 2937.64 1035.79 2936.84 1035.05C2935.83 1034.1 2935.3 1032.67 2935.3 1031.06C2935.3 1029.48 2935.83 1028.06 2936.82 1027.11C2937.58 1026.37 2938.61 1025.85 2939.98 1025.85C2942.83 1025.85 2944.54 1027.85 2944.54 1030.79C2944.54 1031.17 2944.52 1031.52 2944.48 1031.74H2937.68C2937.68 1033.09 2938.55 1034.38 2940.05 1034.38C2941.14 1034.38 2941.88 1033.83 2942.05 1033.05H2944.27C2943.99 1034.99 2942.22 1036.27 2940.09 1036.27ZM2937.7 1030.01H2942.16C2942.16 1028.55 2941.31 1027.73 2940.03 1027.73C2938.74 1027.73 2937.79 1028.67 2937.7 1030.01ZM2950.03 1036.13C2948.04 1036.13 2946.9 1035.13 2946.9 1033.23V1028.08H2945.02V1026.12H2946.9V1023.61L2949.27 1023.02V1026.12H2951.67V1028.08H2949.27V1032.88C2949.27 1033.64 2949.77 1033.97 2950.53 1033.97C2951.02 1033.97 2951.38 1033.91 2951.68 1033.83V1035.89C2951.17 1036.08 2950.6 1036.13 2950.03 1036.13ZM2958.35 1036.27C2957.14 1036.27 2955.94 1035.73 2955.43 1034.59L2955.35 1036H2953.22V1022.24H2955.6V1027.07C2956.03 1026.48 2956.97 1025.85 2958.39 1025.85C2959.57 1025.85 2960.5 1026.23 2961.18 1026.88C2962.21 1027.85 2962.65 1029.37 2962.65 1031.08C2962.65 1032.67 2962.15 1034.33 2961.03 1035.28C2960.35 1035.87 2959.47 1036.27 2958.35 1036.27ZM2957.86 1034.25C2958.56 1034.25 2959.07 1033.99 2959.45 1033.57C2960.02 1032.94 2960.23 1031.99 2960.23 1031.04C2960.23 1030.09 2960.04 1029.25 2959.51 1028.59C2959.13 1028.11 2958.62 1027.83 2957.86 1027.83C2957.14 1027.83 2956.62 1028.1 2956.22 1028.55C2955.67 1029.2 2955.48 1030.05 2955.48 1031.04C2955.48 1032.07 2955.67 1032.98 2956.26 1033.59C2956.62 1033.97 2957.16 1034.25 2957.86 1034.25ZM2968.59 1036.27C2967.19 1036.27 2966.14 1035.79 2965.34 1035.05C2964.34 1034.1 2963.81 1032.67 2963.81 1031.06C2963.81 1029.48 2964.34 1028.06 2965.33 1027.11C2966.09 1026.37 2967.11 1025.85 2968.48 1025.85C2971.33 1025.85 2973.04 1027.85 2973.04 1030.79C2973.04 1031.17 2973.02 1031.52 2972.98 1031.74H2966.18C2966.18 1033.09 2967.05 1034.38 2968.56 1034.38C2969.64 1034.38 2970.38 1033.83 2970.55 1033.05H2972.77C2972.49 1034.99 2970.72 1036.27 2968.59 1036.27ZM2966.2 1030.01H2970.66C2970.66 1028.55 2969.81 1027.73 2968.54 1027.73C2967.24 1027.73 2966.29 1028.67 2966.2 1030.01ZM2974.71 1036V1026.12H2976.78L2976.93 1027.75C2977.39 1026.5 2978.57 1025.99 2979.73 1025.99C2979.97 1025.99 2980.22 1026.01 2980.47 1026.04V1028.32C2980.28 1028.27 2979.99 1028.23 2979.71 1028.23C2977.94 1028.23 2977.11 1029.37 2977.11 1031.21V1036H2974.71ZM2985.36 1040.37C2982.93 1040.37 2980.61 1039.84 2980.61 1037.6C2980.61 1036.7 2981.2 1035.98 2982.07 1035.62C2981.47 1035.3 2981.09 1034.63 2981.09 1033.99C2981.09 1033.21 2981.6 1032.5 2982.4 1032.12C2981.67 1031.5 2981.2 1030.62 2981.2 1029.52C2981.2 1027.32 2982.95 1025.85 2985.25 1025.85C2986.06 1025.85 2986.86 1026.08 2987.49 1026.46C2987.79 1025.45 2988.69 1024.96 2989.58 1024.96C2989.73 1024.96 2990.07 1024.96 2990.22 1025V1026.88C2990.17 1026.86 2990.05 1026.86 2990 1026.86C2989.43 1026.86 2988.8 1027.05 2988.72 1027.66C2989.08 1028.21 2989.27 1028.82 2989.27 1029.5C2989.27 1031.67 2987.49 1033.09 2985.25 1033.09C2984.68 1033.09 2984.13 1033 2983.61 1032.83C2983.35 1032.96 2983.12 1033.17 2983.12 1033.49C2983.12 1034.08 2983.63 1034.18 2984.13 1034.18H2985.8C2986.79 1034.18 2988.06 1034.19 2988.99 1034.84C2989.84 1035.43 2990.15 1036.23 2990.15 1037.18C2990.15 1039.44 2987.94 1040.37 2985.36 1040.37ZM2985.36 1038.57C2986.6 1038.57 2987.93 1038.38 2987.93 1037.24C2987.93 1036.1 2986.63 1036.06 2985.74 1036.06H2983.61C2983.1 1036.21 2982.72 1036.61 2982.72 1037.24C2982.72 1038.38 2984.14 1038.57 2985.36 1038.57ZM2985.25 1031.33C2986.33 1031.33 2986.99 1030.58 2986.99 1029.48C2986.99 1028.38 2986.33 1027.62 2985.25 1027.62C2984.16 1027.62 2983.5 1028.38 2983.5 1029.48C2983.5 1030.58 2984.16 1031.33 2985.25 1031.33ZM2990.93 1033.13H2993.8V1036H2990.93V1033.13ZM2999.56 1036.27C2997.93 1036.27 2996.71 1035.56 2996.03 1034.71C2995.27 1033.78 2994.89 1032.5 2994.89 1031.06C2994.89 1029.62 2995.27 1028.32 2996.05 1027.41C2996.75 1026.58 2997.93 1025.85 2999.56 1025.85C3001.98 1025.85 3003.72 1027.34 3003.84 1029.58H3001.54C3001.44 1028.51 3000.76 1027.91 2999.62 1027.91C2998.84 1027.91 2998.33 1028.19 2998 1028.55C2997.42 1029.2 2997.3 1030.13 2997.3 1031.06C2997.3 1031.99 2997.42 1032.92 2998 1033.55C2998.35 1033.91 2998.84 1034.21 2999.62 1034.21C3000.74 1034.21 3001.44 1033.57 3001.54 1032.56H3003.84C3003.72 1034.76 3001.9 1036.27 2999.56 1036.27ZM3005.44 1022.24H3007.82V1027.16C3008.39 1026.31 3009.55 1025.85 3010.57 1025.85C3012.74 1025.85 3013.97 1027.37 3013.97 1029.41V1036H3011.6V1029.84C3011.6 1028.7 3011.08 1028.04 3009.91 1028.04C3008.48 1028.04 3007.82 1029.5 3007.82 1030.76V1036H3005.44V1022.24Z" fill="black"/>
<path d="M2591.59 126.286C2590.4 126.604 2589.14 126.426 2588.11 125.612L2588.59 124.693C2589.08 124.955 2589.67 125.009 2590.24 124.857C2591.51 124.515 2592.69 123.378 2592.54 120.896C2592.33 118.188 2592.03 114.322 2591.79 111.743C2591.56 109.163 2591.33 106.733 2591.05 104.196C2590.92 102.925 2590.54 102.754 2589.35 102.95L2588.45 103.101L2588.35 102.155L2596.72 99.9077L2596.79 100.86L2595.8 101.219C2594.69 101.608 2594.44 102.037 2594.47 103.277C2594.59 105.552 2594.81 108.836 2595 110.939C2595.21 113.525 2595.67 118.172 2595.82 119.892C2596.1 123.068 2593.99 125.639 2591.59 126.284L2591.59 126.286Z" fill="black"/>
<path d="M2602.17 113.603C2602.79 115.897 2603.75 116.765 2604.85 116.469C2605.9 116.189 2607.35 114.798 2608.47 112.673L2609.35 113.107C2607.21 116.901 2605.55 119.107 2603.86 119.561C2602.33 119.97 2600.45 119.169 2599.55 115.797C2598.18 110.697 2600.95 104.514 2605.2 103.375C2607.15 102.852 2608.19 103.695 2608.58 105.14C2609.06 106.924 2607.93 109.626 2602.04 113C2602.06 113.178 2602.12 113.405 2602.17 113.603H2602.17ZM2605.94 106.032C2605.69 105.097 2605.21 104.679 2604.39 104.897C2602.84 105.315 2601.49 108.56 2601.89 112.099C2605.51 110.216 2606.39 107.703 2605.94 106.032V106.032Z" fill="black"/>
<path d="M2610.28 104.016L2610.05 103.137C2611.6 102.478 2613.6 99.8744 2614.06 97.4108L2614.81 97.2417L2615.09 101.265L2618.15 100.444L2618.48 101.813L2615.23 102.685L2615.94 111.122C2615.97 111.692 2616.01 112.168 2616.13 112.5C2616.25 112.954 2616.46 113.169 2616.77 113.087C2617 113.027 2617.32 112.758 2617.69 112.232L2618.91 110.539L2619.54 111.097L2616.75 115.037C2616.13 115.9 2615.47 116.383 2614.96 116.519C2614.23 116.717 2613.88 116.323 2613.58 115.19C2613.49 114.85 2613.37 114.425 2613.33 113.828L2612.43 103.437L2610.28 104.014V104.016Z" fill="black"/>
<path d="M2621.02 113.797C2622.54 111.295 2626.34 103.864 2627.47 101.192C2625.81 101.639 2623.44 101.394 2622.19 101.728C2621.77 101.842 2621.47 102.224 2621.17 103.126L2620.71 104.465L2619.88 104.203L2621.04 100.155C2621.29 99.1754 2621.61 98.757 2622.2 98.5968C2623.19 98.3319 2626.03 98.8727 2627.73 98.4187C2628.97 98.0849 2629.52 97.6331 2629.91 96.9521L2630.81 97.4707C2628.8 101.292 2625.71 107.528 2624.23 110.719C2626.15 110.203 2628.77 111.958 2630.39 111.527C2631.38 111.262 2631.76 110.643 2631.5 109.68C2631.08 108.122 2629.65 108.898 2629.25 107.398C2629.02 106.519 2629.44 105.83 2630.26 105.609C2631.16 105.367 2632.22 105.569 2632.65 107.185C2633.48 110.274 2631.32 113.77 2629.85 114.164C2627.7 114.74 2624.75 112.891 2623.11 113.332C2622.32 113.545 2621.98 113.877 2621.75 114.364L2621.02 113.799L2621.02 113.797Z" fill="black"/>
<path d="M2632.8 97.9716L2632.56 97.0925C2634.12 96.4338 2636.12 93.83 2636.58 91.3664L2637.32 91.1973L2637.61 95.2209L2640.66 94.3997L2641 95.7684L2637.75 96.6408L2638.46 105.078C2638.49 105.647 2638.52 106.123 2638.64 106.455C2638.77 106.909 2638.98 107.125 2639.29 107.043C2639.51 106.983 2639.83 106.713 2640.21 106.188L2641.43 104.494L2642.06 105.053L2639.26 108.994C2638.65 109.858 2637.99 110.339 2637.48 110.476C2636.74 110.675 2636.39 110.281 2636.09 109.148C2636 108.807 2635.89 108.382 2635.85 107.786L2634.95 97.3952L2632.8 97.9716V97.9716Z" fill="black"/>
<path d="M2651.07 97.4996L2650.84 94.8268C2650.82 94.7422 2650.83 94.6777 2650.82 94.622C2650.73 94.2816 2650.52 94.1859 2650.32 94.2393C2650.12 94.2927 2649.85 94.5175 2649.57 94.9292L2648.26 96.7385L2647.62 96.1799L2650.22 92.5056C2650.94 91.4619 2651.61 90.9166 2652.17 90.7364C2652.77 90.5762 2653.2 90.9478 2653.45 91.8825C2653.55 92.2519 2653.6 92.7838 2653.65 93.3157L2654.05 99.3445C2654.13 100.417 2654.14 101.719 2654.34 102.336C2654.45 102.761 2654.62 102.928 2654.84 102.867C2655.04 102.814 2655.31 102.589 2655.6 102.178L2656.93 100.362C2657.13 100.551 2657.33 100.74 2657.56 100.92C2655.55 103.8 2654.14 106.03 2653.01 106.335C2652.44 106.486 2651.98 106.097 2651.75 105.246C2651.64 104.85 2651.57 104.352 2651.54 103.784L2651.07 97.5018L2651.07 97.4996ZM2653.09 85.9939C2653.36 86.9865 2652.8 88.077 2651.84 88.3351C2650.93 88.5777 2650.28 88.1771 2650.05 87.327C2649.78 86.3077 2650.25 85.2373 2651.3 84.9568C2652.17 84.7209 2652.86 85.1438 2653.09 85.9939Z" fill="black"/>
<path d="M2659.44 92.5189C2659.32 92.0382 2659.15 91.8691 2658.92 91.9292C2658.72 91.9826 2658.48 92.2007 2658.17 92.6168L2656.86 94.4261L2656.23 93.8675L2658.48 90.6206C2659.43 89.3031 2660.12 88.5999 2660.8 88.4174C2661.37 88.266 2661.73 88.7156 2661.98 89.6503C2662.08 90.0197 2662.17 90.4804 2662.21 90.9833L2662.36 92.6747C2663.9 90.1644 2666.29 86.973 2667.99 86.5168C2668.98 86.252 2669.64 86.8951 2669.94 88.0279C2670.09 88.5665 2670.15 89.036 2670.19 89.6325L2670.62 96.5648C2670.65 97.1345 2670.71 97.5729 2670.79 97.8845C2670.9 98.3096 2671.07 98.5054 2671.3 98.4453C2671.5 98.3919 2671.77 98.1382 2672.05 97.7287L2673.36 95.9484L2674.02 96.5003L2671.76 99.7205C2670.85 101.06 2670.15 101.732 2669.47 101.915C2668.93 102.059 2668.44 101.677 2668.21 100.827C2668.1 100.402 2668.03 99.9319 2668 99.3644L2667.4 91.0189C2667.33 90.0664 2667.01 89.6659 2666.14 89.9018C2664.67 90.2957 2662.47 93.4091 2662.98 99.6471L2663.25 103.13L2660.5 103.867L2659.63 93.803C2659.57 93.2422 2659.52 92.8015 2659.44 92.5189H2659.44Z" fill="black"/>
<path d="M2690.86 73.941C2690.92 76.6583 2691.3 81.265 2691.57 84.5342L2691.92 89.1476C2692 90.2492 2692.1 91.6223 2692.23 92.132C2692.36 92.586 2692.55 92.7462 2692.78 92.6861C2693.23 92.5637 2694.23 91.0816 2694.84 90.1891C2695.07 90.3694 2695.27 90.5586 2695.47 90.7477L2693 94.2974C2692.32 95.2699 2691.64 95.9064 2691.07 96.0599C2690.37 96.2491 2689.92 96.0644 2689.65 95.074C2689.55 94.6779 2689.48 94.1794 2689.45 93.6119L2689.35 92.0274C2687.6 95.3233 2685.77 97.5465 2684.16 97.9783C2682.97 98.2965 2681.96 97.5955 2681.35 95.2988C2679.73 89.2633 2683.1 82.6804 2686.38 81.7991C2687.14 81.5944 2687.81 81.719 2688.47 82.1485C2688.36 80.5996 2688.35 78.5077 2688.04 77.3727C2687.82 76.5225 2687.26 76.6093 2685.57 77.0656L2685.35 76.2711C2687.15 75.728 2689.82 74.4951 2690.69 73.8965L2690.85 73.9432L2690.86 73.941ZM2685.87 94.8426C2687.73 94.3419 2689.75 89.6394 2688.48 84.8769C2688.05 83.2902 2687.32 82.7249 2686.31 82.9987C2684.44 83.4994 2682.63 87.7233 2683.98 92.7952C2684.48 94.6378 2685.02 95.0696 2685.87 94.8426V94.8426Z" fill="black"/>
<path d="M2698.91 87.632C2699.53 89.9265 2700.49 90.7944 2701.59 90.4984C2702.64 90.218 2704.08 88.8271 2705.21 86.7018L2706.08 87.1357C2703.95 90.9301 2702.29 93.1356 2700.6 93.5918C2699.07 94.0013 2697.19 93.2001 2696.28 89.8285C2694.92 84.7278 2697.69 78.5454 2701.94 77.406C2703.89 76.883 2704.93 77.7264 2705.32 79.1708C2705.8 80.9556 2704.67 83.6595 2698.78 87.0311C2698.8 87.2092 2698.86 87.4362 2698.91 87.6342L2698.91 87.632ZM2702.68 80.061C2702.43 79.1263 2701.95 78.7079 2701.13 78.926C2699.58 79.3444 2698.23 82.5913 2698.63 86.1276C2702.25 84.2448 2703.12 81.7323 2702.68 80.0587V80.061Z" fill="black"/>
<path d="M2713.63 89.6059L2710.83 90.3581L2710.16 82.184C2710.02 81.2181 2709.91 80.4882 2709.76 79.9207C2709.49 78.9014 2709.13 78.4519 2708.76 78.5498C2708.5 78.6188 2708.24 78.8725 2707.98 79.2464L2706.67 81.0557C2706.44 80.8754 2706.24 80.6862 2706.03 80.4971C2707.91 77.6552 2709.51 75.3718 2710.28 75.1671C2710.9 75.0002 2711.54 76.0417 2712.04 77.9133C2712.13 78.2538 2712.23 78.621 2712.32 79.055C2713.52 76.7294 2714.66 73.992 2716.3 73.5514C2717.35 73.271 2718.01 73.8207 2718.28 74.8422C2718.6 76.0328 2718.14 77.1299 2716.98 77.4415C2716.07 77.6841 2715.58 76.8451 2714.75 77.0654C2713.6 77.377 2712.8 79.8383 2713.33 86.014C2713.41 87.2091 2713.52 88.4242 2713.62 89.6104L2713.63 89.6059Z" fill="black"/>
<path d="M2599.55 147.66L2600.46 147.324C2601.59 146.899 2601.95 146.529 2601.88 145.243C2601.69 142.619 2601.52 140.175 2601.29 137.596C2601.05 135.017 2600.81 132.529 2600.53 129.994C2600.4 128.723 2600.02 128.55 2598.83 128.748L2597.93 128.899L2597.83 127.953L2606.62 125.592C2611.6 124.254 2613.94 126.088 2614.65 128.723C2615.77 132.918 2612.4 136.406 2608.18 137.536C2607.05 137.839 2605.89 138.03 2604.58 138.11C2604.78 140.456 2605.01 143.006 2605.18 144.355C2605.3 145.57 2605.64 145.842 2606.8 145.623L2608.32 145.305L2608.4 146.193L2599.64 148.548L2599.55 147.66H2599.55ZM2606.98 136.339C2610.07 135.511 2611.89 133.018 2611.02 129.787C2610.49 127.804 2609.08 126.269 2605.71 127.172C2604.95 127.377 2604.45 127.542 2603.86 127.822C2603.94 129.956 2604.26 134.427 2604.43 136.659C2605.4 136.644 2606.16 136.559 2606.99 136.339H2606.98Z" fill="black"/>
<path d="M2620.17 143.491C2618.98 143.809 2617.98 143.108 2617.36 140.812C2615.74 134.747 2619.14 128.184 2622.42 127.303C2623.33 127.061 2624.16 127.232 2624.93 127.966L2624.92 126.331L2627.24 125.708L2628.05 136.334C2628.08 136.904 2628.14 137.342 2628.22 137.656C2628.34 138.081 2628.51 138.277 2628.74 138.217C2628.96 138.157 2629.23 137.903 2629.51 137.491L2630.83 135.711L2631.46 136.27L2629.2 139.49C2628.28 140.83 2627.58 141.502 2626.93 141.677C2626.37 141.829 2625.9 141.439 2625.67 140.589C2625.56 140.164 2625.49 139.695 2625.46 139.127L2625.37 137.543C2623.59 140.847 2621.98 143.008 2620.17 143.493V143.491ZM2621.88 140.36C2623.75 139.859 2625.79 135.148 2624.52 130.388C2624.09 128.772 2623.34 128.245 2622.32 128.518C2620.49 129.012 2618.65 133.243 2620 138.315C2620.5 140.157 2621.07 140.58 2621.89 140.362L2621.88 140.36Z" fill="black"/>
<path d="M2637.51 138.379L2634.71 139.132L2634.04 130.957C2633.9 129.992 2633.8 129.262 2633.65 128.694C2633.37 127.675 2633.01 127.225 2632.64 127.323C2632.39 127.392 2632.12 127.646 2631.86 128.02L2630.55 129.829C2630.32 129.649 2630.12 129.46 2629.92 129.271C2631.79 126.429 2633.4 124.145 2634.16 123.941C2634.78 123.774 2635.42 124.815 2635.93 126.687C2636.02 127.027 2636.11 127.394 2636.2 127.828C2637.4 125.503 2638.54 122.765 2640.19 122.325C2641.23 122.044 2641.9 122.594 2642.17 123.616C2642.48 124.806 2642.02 125.903 2640.86 126.213C2639.95 126.455 2639.46 125.616 2638.64 125.837C2637.48 126.148 2636.68 128.61 2637.21 134.785C2637.29 135.98 2637.4 137.195 2637.51 138.382L2637.51 138.379Z" fill="black"/>
<path d="M2645.97 114.331C2646.1 116.997 2646.31 120.952 2646.56 123.8L2646.7 125.343C2648.23 122.805 2650.71 119.496 2652.41 119.04C2653.74 118.684 2654.83 119.24 2655.15 120.46C2655.59 122.104 2654.57 124.719 2650.84 127.784C2652.99 131.064 2653.73 131.685 2654.27 131.54C2654.55 131.465 2654.88 131.224 2655.17 130.813L2656.45 129.041L2657.08 129.6L2654.5 133.301C2653.91 134.158 2653.52 134.534 2652.93 134.694C2652.14 134.908 2650.96 133.125 2648.09 128.948C2652.06 126.026 2652.94 123.727 2652.62 122.565C2652.44 121.884 2651.88 121.61 2651.26 121.777C2649.73 122.187 2647.22 124.926 2647.17 129.711C2647.14 131.634 2647.4 133.75 2647.52 135.691L2644.81 136.421L2643.29 118.39C2643.26 118.156 2643.23 117.95 2643.19 117.78C2642.95 116.901 2642.37 116.997 2640.67 117.453L2640.46 116.659C2642.26 116.116 2644.96 114.874 2645.8 114.284L2645.96 114.331H2645.97Z" fill="black"/>
<path d="M2658.07 125.115L2657.87 123.133L2663.67 121.575L2663.87 123.558L2658.07 125.113V125.115Z" fill="black"/>
<path d="M2665.47 112.344C2664.95 111.391 2664.68 111.191 2663.74 111.291L2663.1 111.402L2663 110.457L2670.83 108.353L2670.93 109.299L2670.16 109.569C2669.13 109.934 2668.93 110.443 2669.1 111.066L2669.15 111.235C2670.52 114.543 2673.05 119.483 2675.16 123.745C2676.55 118.633 2678.07 112.515 2678.71 109.032C2678.79 108.647 2678.8 108.34 2678.73 108.086C2678.63 107.69 2678.2 107.47 2677.48 107.601L2676.73 107.741L2676.63 106.796L2683.16 105.042L2683.27 105.988L2682.6 106.226C2681.61 106.584 2681.41 107 2680.95 108.552C2679.3 114.4 2677.18 122.352 2675.7 128.367L2674.03 128.814C2671.57 123.703 2668.05 117.086 2665.47 112.342V112.344Z" fill="black"/>
<path d="M2685.89 116.492L2685.66 113.819C2685.64 113.734 2685.66 113.67 2685.64 113.612C2685.55 113.272 2685.34 113.176 2685.14 113.229C2684.94 113.283 2684.67 113.507 2684.39 113.919L2683.08 115.728L2682.45 115.17L2685.04 111.496C2685.76 110.452 2686.44 109.907 2686.99 109.726C2687.59 109.566 2688.02 109.938 2688.27 110.872C2688.37 111.242 2688.42 111.774 2688.47 112.306L2688.87 118.334C2688.95 119.407 2688.96 120.709 2689.16 121.325C2689.27 121.751 2689.44 121.92 2689.66 121.857C2689.86 121.804 2690.13 121.579 2690.42 121.167L2691.75 119.352C2691.95 119.541 2692.16 119.73 2692.39 119.91C2690.37 122.79 2688.96 125.02 2687.83 125.325C2687.27 125.476 2686.8 125.087 2686.57 124.236C2686.46 123.84 2686.39 123.342 2686.36 122.774L2685.89 116.492V116.492ZM2687.91 104.986C2688.17 105.979 2687.62 107.069 2686.66 107.327C2685.75 107.57 2685.1 107.169 2684.87 106.319C2684.6 105.3 2685.07 104.229 2686.12 103.949C2687 103.713 2687.68 104.136 2687.91 104.986V104.986Z" fill="black"/>
<path d="M2697.15 119.149C2697.28 119.603 2697.46 119.734 2697.69 119.674C2698.17 119.545 2699.14 118.07 2699.76 117.206C2699.99 117.386 2700.19 117.576 2700.39 117.765L2698.58 120.38C2697.5 122.035 2696.63 122.968 2695.87 123.173C2695.27 123.333 2694.8 122.941 2694.58 122.091C2694.46 121.666 2694.38 121.021 2694.34 120.422L2693.08 105.028C2693.04 104.795 2693.02 104.588 2692.97 104.419C2692.74 103.54 2692.16 103.635 2690.46 104.091L2690.25 103.297C2692.04 102.754 2694.74 101.512 2695.59 100.922L2695.75 100.969C2695.88 103.942 2696.18 108.478 2696.48 111.861L2696.99 117.829C2697.05 118.39 2697.07 118.837 2697.16 119.151L2697.15 119.149Z" fill="black"/>
<path d="M2705.08 117.022C2705.2 117.476 2705.38 117.607 2705.61 117.547C2706.09 117.418 2707.06 115.942 2707.68 115.079C2707.91 115.259 2708.11 115.448 2708.31 115.637L2706.5 118.252C2705.42 119.908 2704.55 120.84 2703.79 121.045C2703.19 121.205 2702.73 120.814 2702.5 119.964C2702.38 119.539 2702.3 118.893 2702.26 118.294L2701 102.901C2700.96 102.667 2700.94 102.46 2700.89 102.291C2700.66 101.412 2700.08 101.508 2698.38 101.964L2698.17 101.169C2699.96 100.626 2702.66 99.3847 2703.51 98.7949L2703.67 98.8417C2703.8 101.815 2704.1 106.35 2704.4 109.733L2704.9 115.702C2704.96 116.263 2704.99 116.71 2705.08 117.024V117.022Z" fill="black"/>
<path d="M2712.13 118.804C2710.94 119.122 2709.94 118.421 2709.32 116.125C2707.7 110.06 2711.1 103.497 2714.38 102.616C2715.29 102.374 2716.12 102.545 2716.89 103.279L2716.88 101.644L2719.2 101.021L2720.01 111.647C2720.04 112.217 2720.1 112.655 2720.18 112.969C2720.29 113.394 2720.47 113.59 2720.69 113.53C2720.92 113.47 2721.19 113.216 2721.47 112.804L2722.78 111.024L2723.42 111.583L2721.16 114.803C2720.24 116.143 2719.54 116.815 2718.89 116.99C2718.33 117.142 2717.86 116.752 2717.63 115.902C2717.52 115.477 2717.45 115.008 2717.42 114.44L2717.33 112.856C2715.55 116.16 2713.94 118.321 2712.13 118.806V118.804ZM2713.84 115.673C2715.71 115.172 2717.75 110.461 2716.48 105.701C2716.04 104.085 2715.3 103.558 2714.28 103.831C2712.44 104.325 2710.6 108.556 2711.96 113.628C2712.45 115.47 2713.02 115.893 2713.84 115.675L2713.84 115.673Z" fill="black"/>
<path d="M2632.08 167.268L2632.99 166.932C2634.12 166.507 2634.48 166.137 2634.41 164.851C2634.22 162.227 2634.03 159.726 2633.8 157.146C2633.56 154.567 2633.34 152.137 2633.06 149.6C2632.93 148.329 2632.55 148.155 2631.36 148.353L2630.46 148.505L2630.36 147.559L2638.87 145.273C2643.85 143.936 2646.34 145.638 2646.99 148.075C2647.9 151.476 2645.58 153.799 2642.47 155.212C2643.53 155.444 2644.3 156.056 2645.1 156.877C2646.49 158.234 2647.6 159.759 2648.91 161.168C2649.75 162.036 2650.24 162.178 2650.98 162.1L2651.6 162.027L2651.71 162.908L2646.68 164.259C2645.16 162.207 2643.65 160.211 2641.82 158.241C2640.58 156.875 2639.76 156.425 2638.87 156.603C2638.43 156.688 2637.75 156.844 2637.02 156.948C2637.27 159.463 2637.53 162.583 2637.71 163.961C2637.83 165.176 2638.17 165.447 2639.33 165.229L2640.31 165.056L2640.42 165.937L2632.16 168.153L2632.08 167.265L2632.08 167.268ZM2639.35 155.11C2642.12 154.367 2644.31 152.47 2643.45 149.241C2642.87 147.087 2641.3 145.961 2637.99 146.849C2637.22 147.054 2636.98 147.152 2636.38 147.432C2636.46 149.417 2636.75 153.318 2636.93 155.579C2637.81 155.466 2638.58 155.317 2639.35 155.112V155.11Z" fill="black"/>
<path d="M2653.59 153.503L2653.36 150.83C2653.34 150.746 2653.36 150.681 2653.34 150.623C2653.25 150.283 2653.04 150.187 2652.84 150.24C2652.64 150.294 2652.37 150.519 2652.09 150.93L2650.78 152.74L2650.15 152.181L2652.74 148.507C2653.46 147.463 2654.13 146.918 2654.69 146.738C2655.29 146.577 2655.72 146.949 2655.97 147.884C2656.07 148.253 2656.12 148.785 2656.17 149.317L2656.57 155.346C2656.65 156.418 2656.66 157.72 2656.86 158.337C2656.97 158.762 2657.14 158.931 2657.36 158.869C2657.56 158.815 2657.83 158.59 2658.12 158.179L2659.45 156.363C2659.65 156.552 2659.85 156.741 2660.09 156.921C2658.07 159.801 2656.66 162.031 2655.53 162.336C2654.96 162.487 2654.5 162.098 2654.27 161.248C2654.16 160.852 2654.09 160.353 2654.06 159.786L2653.59 153.503H2653.59ZM2655.61 141.997C2655.87 142.99 2655.32 144.08 2654.36 144.339C2653.45 144.581 2652.8 144.181 2652.57 143.33C2652.3 142.311 2652.77 141.241 2653.82 140.96C2654.69 140.724 2655.38 141.147 2655.61 141.997V141.997Z" fill="black"/>
<path d="M2663.56 153.804C2664.17 156.101 2665.13 156.966 2666.23 156.67C2667.28 156.39 2668.73 154.999 2669.86 152.874L2670.73 153.308C2668.59 157.102 2666.94 159.307 2665.24 159.764C2663.71 160.173 2661.83 159.372 2660.93 156C2659.57 150.9 2662.34 144.717 2666.58 143.578C2668.53 143.055 2669.58 143.898 2669.96 145.343C2670.44 147.127 2669.31 149.829 2663.43 153.203C2663.44 153.381 2663.5 153.608 2663.56 153.806V153.804ZM2667.32 146.233C2667.07 145.298 2666.6 144.88 2665.78 145.098C2664.22 145.516 2662.88 148.763 2663.28 152.299C2666.89 150.417 2667.77 147.904 2667.32 146.231V146.233Z" fill="black"/>
<path d="M2671.66 144.216L2671.43 143.337C2672.98 142.678 2674.98 140.075 2675.44 137.611L2676.19 137.442L2676.48 141.466L2679.53 140.644L2679.86 142.013L2676.61 142.885L2677.32 151.322C2677.35 151.892 2677.39 152.368 2677.51 152.7C2677.63 153.154 2677.84 153.37 2678.15 153.287C2678.38 153.227 2678.7 152.958 2679.08 152.433L2680.29 150.739L2680.93 151.298L2678.13 155.237C2677.51 156.1 2676.85 156.583 2676.34 156.719C2675.61 156.917 2675.26 156.523 2674.96 155.39C2674.87 155.05 2674.75 154.625 2674.72 154.028L2673.82 143.638L2671.67 144.214L2671.66 144.216Z" fill="black"/>
<path d="M2685.11 148.017C2685.72 150.314 2686.68 151.18 2687.79 150.884C2688.83 150.603 2690.28 149.212 2691.41 147.087L2692.28 147.521C2690.14 151.315 2688.49 153.521 2686.79 153.977C2685.26 154.387 2683.38 153.585 2682.48 150.214C2681.12 145.113 2683.89 138.931 2688.13 137.791C2690.08 137.268 2691.13 138.112 2691.51 139.556C2691.99 141.341 2690.87 144.043 2684.98 147.416C2685 147.594 2685.06 147.821 2685.11 148.019V148.017ZM2688.87 140.446C2688.62 139.512 2688.15 139.093 2687.33 139.311C2685.77 139.73 2684.43 142.977 2684.83 146.513C2688.45 144.63 2689.32 142.118 2688.87 140.444V140.446Z" fill="black"/>
<path d="M2699.82 149.991L2697.02 150.744L2696.35 142.569C2696.22 141.604 2696.11 140.874 2695.96 140.306C2695.69 139.287 2695.32 138.837 2694.96 138.935C2694.7 139.004 2694.44 139.258 2694.17 139.632L2692.87 141.439C2692.63 141.259 2692.43 141.07 2692.23 140.88C2694.11 138.038 2695.71 135.755 2696.48 135.55C2697.1 135.383 2697.74 136.425 2698.24 138.297C2698.33 138.637 2698.43 139.004 2698.52 139.438C2699.71 137.113 2700.86 134.373 2702.5 133.935C2703.55 133.654 2704.21 134.204 2704.48 135.225C2704.8 136.416 2704.34 137.513 2703.18 137.825C2702.27 138.067 2701.77 137.228 2700.95 137.449C2699.79 137.76 2699 140.222 2699.53 146.397C2699.6 147.592 2699.72 148.807 2699.82 149.994L2699.82 149.991Z" fill="black"/>
<defs>
<clipPath id="clip0_1351_4086">
<rect width="146" height="25" fill="white" transform="translate(2744.5 1019)"/>
</clipPath>
</defs>
</svg>
